<?xml version="1.0" encoding="UTF-8"?>
<svg width="572px" height="452px" viewBox="0 0 572 452" version="1.1" xmlns="http://www.w3.org/2000/svg" xmlns:xlink="http://www.w3.org/1999/xlink">
    <!-- Generator: Sketch 56.2 (81672) - https://sketch.com -->
    <title>built-on-en</title>
    <desc>Created with Sketch.</desc>
    <defs>
        <linearGradient x1="5.55587214%" y1="-12.6354009%" x2="92.6895355%" y2="-12.6354009%" id="linearGradient-1">
            <stop stop-color="#E22D73" offset="0%"></stop>
            <stop stop-color="#5B6FDC" offset="100%"></stop>
        </linearGradient>
    </defs>
    <g id="页面-1" stroke="none" stroke-width="1" fill="none" fill-rule="evenodd">
        <g id="built-on-en" transform="translate(-1.000000, 0.000000)">
            <path d="M238.945,215.248 L257.963,255.899 L279.885,255.899 L258.108,212.344 C263.77,210.311 268.125,206.972 271.174,202.326 C274.223,197.826 275.82,192.309 275.82,185.63 C275.82,176.484 272.916,169.225 267.109,163.853 C261.302,158.481 253.462,155.723 243.736,155.723 L205.699,155.723 L205.699,255.899 L224.717,255.899 L224.717,215.248 L238.945,215.248 Z M224.717,199.423 L224.717,172.273 L242.719,172.273 C247.075,172.273 250.414,173.58 253.027,175.903 C255.495,178.371 256.801,181.565 256.801,185.63 C256.801,190.131 255.495,193.615 253.027,195.938 C250.559,198.261 247.075,199.423 242.719,199.423 L224.717,199.423 Z" id="形状" fill="#002060" fill-rule="nonzero"></path>
            <path d="M291.331,180.404 L291.331,255.899 L309.188,255.899 L309.188,180.404 L291.331,180.404 Z M291.041,155.723 L291.041,170.096 L309.333,170.096 L309.333,155.723 L291.041,155.723 Z" id="形状" fill="#002060" fill-rule="nonzero"></path>
            <path d="M332.447,249.075 C337.963,254.302 345.367,256.77 354.949,256.77 C364.24,256.77 371.644,254.302 377.161,249.075 C382.533,243.994 385.291,236.009 385.291,225.12 L385.291,211.037 C385.291,200.294 382.533,192.454 377.161,187.227 C371.644,182.146 364.24,179.533 354.949,179.533 C345.367,179.533 337.963,182.146 332.447,187.227 C326.93,192.454 324.317,200.294 324.317,211.037 L324.317,225.12 C324.317,236.009 326.93,243.994 332.447,249.075 Z M367.434,224.975 C367.434,235.573 363.224,240.8 354.949,240.8 C346.384,240.8 342.173,235.573 342.173,224.975 L342.173,211.328 C342.173,200.875 346.384,195.503 354.949,195.503 C363.224,195.503 367.434,200.875 367.434,211.328 L367.434,224.975 Z" id="形状" fill="#002060" fill-rule="nonzero"></path>
            <path d="M205.699,288.933 C205.699,297.176 209.418,301.253 216.944,301.253 C220.349,301.253 223.082,300.402 225.053,298.61 C227.024,296.818 228.01,294.264 228.01,290.949 L228.01,290.635 L222.231,290.635 L222.231,290.993 C222.231,292.561 221.783,293.771 220.887,294.667 C219.991,295.563 218.736,296.011 217.079,296.011 C215.197,296.011 213.808,295.474 212.912,294.309 C212.016,293.189 211.613,291.352 211.613,288.843 L211.613,282.168 C211.613,279.524 212.016,277.598 212.867,276.433 C213.719,275.268 215.107,274.686 216.989,274.686 C218.647,274.686 219.946,275.179 220.842,276.075 C221.738,277.016 222.231,278.27 222.231,279.838 L222.231,280.107 L228.1,280.107 L228.1,279.793 C228.1,276.568 227.069,274.014 225.098,272.222 C223.082,270.43 220.394,269.534 217.034,269.534 C209.462,269.534 205.699,273.656 205.699,281.854 L205.699,288.933 Z" id="路径" fill="#4E87F7" fill-rule="nonzero"></path>
            <path d="M231.866,269.982 L231.866,300.894 L237.422,300.894 L237.422,286.379 C237.422,285.08 237.735,284.049 238.452,283.333 C239.169,282.616 240.065,282.257 241.14,282.257 C242.215,282.257 243.111,282.616 243.783,283.333 C244.411,284.049 244.769,285.035 244.769,286.379 L244.769,300.894 L250.324,300.894 L250.324,285.707 C250.324,283.109 249.652,281.048 248.353,279.569 C247.009,278.091 245.172,277.329 242.798,277.329 C241.722,277.329 240.737,277.553 239.841,277.912 C238.9,278.315 238.094,278.897 237.422,279.659 L237.422,269.982 L231.866,269.982 Z" id="路径" fill="#4E87F7" fill-rule="nonzero"></path>
            <path d="M270.374,279.435 C268.761,278.046 266.521,277.329 263.564,277.329 C260.921,277.329 258.815,278.001 257.292,279.256 C255.724,280.51 254.962,282.257 254.962,284.408 L254.962,284.587 L260.115,284.587 L260.115,284.453 C260.115,283.601 260.383,282.929 261.011,282.392 C261.638,281.854 262.444,281.585 263.519,281.585 C265.983,281.585 267.238,282.84 267.238,285.304 L267.238,287.141 L262.31,287.141 C259.801,287.141 257.83,287.768 256.441,288.977 C255.007,290.187 254.335,291.845 254.335,293.906 C254.335,296.19 254.962,297.982 256.306,299.237 C257.606,300.536 259.443,301.163 261.862,301.163 C263.116,301.163 264.147,300.984 264.953,300.626 C265.759,300.267 266.566,299.685 267.372,298.878 L267.372,300.894 L272.748,300.894 L272.748,285.573 C272.748,282.885 271.942,280.824 270.374,279.435 Z M266.252,295.698 C265.625,296.37 264.55,296.683 263.116,296.683 C260.831,296.683 259.711,295.742 259.711,293.771 C259.711,291.889 260.876,290.949 263.206,290.949 L267.238,290.949 L267.238,292.606 C267.238,293.995 266.879,295.026 266.252,295.698 Z" id="形状" fill="#4E87F7" fill-rule="nonzero"></path>
            <path d="M277.81,277.598 L277.81,300.894 L283.32,300.894 L283.32,277.598 L277.81,277.598 Z M277.72,269.982 L277.72,274.417 L283.365,274.417 L283.365,269.982 L277.72,269.982 Z" id="形状" fill="#4E87F7" fill-rule="nonzero"></path>
            <path d="M288.392,277.598 L288.392,300.894 L293.947,300.894 L293.947,286.379 C293.947,285.08 294.261,284.049 294.978,283.333 C295.695,282.616 296.591,282.257 297.666,282.257 C298.741,282.257 299.637,282.616 300.309,283.333 C300.936,284.049 301.295,285.08 301.295,286.379 L301.295,300.894 L306.85,300.894 L306.85,285.707 C306.85,283.109 306.178,281.093 304.879,279.569 C303.535,278.091 301.698,277.329 299.324,277.329 C298.248,277.329 297.263,277.553 296.277,277.956 C295.291,278.36 294.485,278.942 293.813,279.704 L293.813,277.598 L288.392,277.598 Z" id="路径" fill="#4E87F7" fill-rule="nonzero"></path>
            <rect id="矩形" fill="#002060" fill-rule="nonzero" transform="translate(97.485228, 172.836000) rotate(-45.000000) translate(-97.485228, -172.836000) " x="72.8525777" y="148.20335" width="49.2653" height="49.2653"></rect>
            <rect id="矩形" fill="#002060" fill-rule="nonzero" transform="translate(97.485228, 284.140000) rotate(-45.000000) translate(-97.485228, -284.140000) " x="72.8525777" y="259.50735" width="49.2653" height="49.2653"></rect>
            <rect id="矩形" fill="#002060" fill-rule="nonzero" transform="translate(153.140828, 228.762000) rotate(-45.000000) translate(-153.140828, -228.762000) " x="128.508178" y="204.12935" width="49.2653" height="49.2653"></rect>
            <polygon id="路径" fill="#4E87F7" fill-rule="nonzero" points="107.751 228.728 132.283 204.196 156.816 228.728 132.283 253.261"></polygon>
            <rect id="矩形" fill="#002060" fill-rule="nonzero" transform="translate(41.835828, 228.762000) rotate(-45.000000) translate(-41.835828, -228.762000) " x="17.2031777" y="204.12935" width="49.2653" height="49.2653"></rect>
            <polygon id="路径" fill="#4E87F7" fill-rule="nonzero" points="38.085 228.728 62.6172 204.196 87.1495 228.728 62.6172 253.261"></polygon>
            <polygon id="路径" fill="#4E87F7" fill-rule="nonzero" points="72.918 193.896 97.45 169.363 121.982 193.896 97.45 218.428"></polygon>
            <polygon id="路径" fill="#4E87F7" fill-rule="nonzero" points="72.918 263.561 97.45 239.029 121.982 263.561 97.45 288.093"></polygon>
            <text id="RioChain-is-audited" font-family="PingFangSC-Regular, PingFang SC" font-size="16" font-weight="normal" fill="#000000">
                <tspan x="0" y="410">RioChain is audited by:</tspan>
            </text>
            <g id="编组" transform="translate(201.000000, 378.000000)" fill="#1C2230" fill-rule="nonzero">
                <path d="M40.081,27.935 C42.321,23.312 44.579,18.724 46.801,14.119 C47.647,12.392 48.459,10.665 49.305,8.938 C49.605,8.31 50.063,8.013 50.593,8.083 C51.139,8.17 51.474,8.589 51.598,9.234 C52.18,12.304 52.303,15.409 52.109,18.515 C51.245,32.732 45.214,44.193 33.362,52.462 C31.422,53.805 29.306,54.904 27.278,56.125 C26.837,56.387 26.396,56.387 25.937,56.16 C20.788,53.474 16.079,50.194 12.164,45.885 C7.173,40.39 3.892,34.023 2.217,26.853 C1.282,22.841 0.841,18.776 1.018,14.677 C1.088,12.863 1.353,11.031 1.564,9.217 C1.635,8.554 2.076,8.135 2.605,8.083 C3.205,8.048 3.575,8.344 3.839,8.868 C7.014,15.008 10.206,21.114 13.345,27.237 C13.61,27.76 13.91,27.987 14.544,27.987 C22.974,27.97 31.405,27.987 39.835,27.987 C39.887,27.987 39.958,27.97 40.081,27.935 Z M26.625,52.828 C30.734,45.222 34.755,37.773 38.829,30.255 C30.787,30.255 22.922,30.255 14.915,30.255 C18.812,37.756 22.675,45.205 26.625,52.828 Z M23.733,52.34 C23.08,50.56 3.804,13.595 3.363,13.211 C2.376,28.755 9.113,43.809 23.733,52.34 Z M29.641,52.148 C36.66,48.031 42.074,42.431 45.637,35.157 C49.005,28.284 50.275,21.027 49.869,13.351 C49.711,13.456 49.64,13.491 49.623,13.525 C43.485,26.644 36.519,39.361 29.641,52.148 Z" id="形状"></path>
                <path d="M147.079,31.249 C149.302,33.848 151.383,36.308 153.605,38.907 C152.547,38.907 151.682,38.96 150.818,38.872 C150.536,38.855 150.219,38.558 150.007,38.314 C148.155,36.168 146.321,34.023 144.522,31.842 C144.152,31.389 143.764,31.232 143.182,31.232 C140.607,31.266 138.015,31.249 135.352,31.249 C135.352,33.744 135.352,36.256 135.352,38.837 C134.523,38.837 133.782,38.837 132.988,38.837 C132.988,32.051 132.988,25.266 132.988,18.445 C133.253,18.427 133.482,18.392 133.711,18.392 C139.143,18.392 144.575,18.392 150.007,18.392 C151.224,18.392 152.3,18.741 152.988,19.753 C153.34,20.276 153.64,20.957 153.658,21.585 C153.746,23.765 153.728,25.946 153.675,28.109 C153.622,29.853 152.176,31.197 150.413,31.249 C149.372,31.266 148.349,31.249 147.079,31.249 Z M143.305,28.929 C145.475,28.929 147.644,28.929 149.813,28.929 C150.977,28.929 151.33,28.563 151.33,27.411 C151.33,25.737 151.33,24.044 151.33,22.37 C151.33,21.026 151.03,20.73 149.672,20.73 C145.422,20.73 141.171,20.73 136.921,20.73 C136.745,20.73 136.568,20.73 136.392,20.747 C135.687,20.817 135.299,21.166 135.299,21.846 C135.281,23.852 135.281,25.841 135.299,27.847 C135.299,28.458 135.651,28.789 136.269,28.894 C136.533,28.946 136.798,28.929 137.062,28.929 C139.143,28.929 141.224,28.929 143.305,28.929 Z" id="形状"></path>
                <path d="M100.644,18.392 C106.94,18.392 113.148,18.392 119.444,18.392 C119.444,19.125 119.444,19.84 119.444,20.643 C113.959,20.643 108.492,20.643 102.954,20.643 C102.954,22.945 102.954,25.126 102.954,27.411 C107.345,27.411 111.737,27.411 116.199,27.411 C116.199,28.231 116.199,28.964 116.199,29.784 C111.807,29.784 107.416,29.784 102.954,29.784 C102.954,32.069 102.954,34.249 102.954,36.552 C108.421,36.552 113.888,36.552 119.426,36.552 C119.426,37.355 119.426,38.07 119.426,38.837 C113.183,38.837 106.957,38.837 100.626,38.837 C100.644,32.051 100.644,25.248 100.644,18.392 Z" id="路径"></path>
                <path d="M87.099,36.587 C87.099,37.424 87.099,38.104 87.099,38.837 C86.87,38.855 86.676,38.889 86.482,38.889 C80.997,38.889 75.495,38.889 70.01,38.889 C68.211,38.889 66.853,37.825 66.5,36.186 C66.43,35.872 66.43,35.557 66.43,35.243 C66.43,30.83 66.412,26.417 66.43,22.003 C66.43,19.77 67.858,18.357 70.116,18.357 C75.548,18.34 80.979,18.357 86.411,18.357 C86.623,18.357 86.817,18.375 87.099,18.392 C87.099,19.107 87.099,19.822 87.099,20.677 C86.729,20.677 86.358,20.677 86.006,20.677 C80.927,20.677 75.847,20.677 70.768,20.677 C70.468,20.677 70.186,20.66 69.886,20.695 C69.234,20.782 68.881,21.113 68.793,21.759 C68.758,21.986 68.775,22.23 68.775,22.457 C68.775,26.574 68.775,30.708 68.775,34.825 C68.775,35.086 68.758,35.348 68.811,35.61 C68.899,36.151 69.234,36.5 69.798,36.569 C70.08,36.604 70.38,36.604 70.68,36.604 C75.812,36.604 80.962,36.604 86.094,36.604 C86.376,36.587 86.693,36.587 87.099,36.587 Z" id="路径"></path>
                <path d="M236,38.907 C234.96,38.907 234.113,38.942 233.267,38.89 C233.002,38.872 232.72,38.611 232.526,38.384 C230.251,35.732 227.976,33.063 225.736,30.394 C225.383,29.958 225.013,29.819 224.466,29.819 C222.526,29.853 220.604,29.836 218.576,29.836 C218.576,32.871 218.576,35.837 218.576,38.872 C217.765,38.872 217.042,38.872 216.266,38.872 C216.266,32.069 216.266,25.283 216.266,18.427 C217.006,18.427 217.712,18.427 218.541,18.427 C218.541,21.41 218.541,24.376 218.541,27.464 C219.14,27.464 219.669,27.464 220.181,27.464 C221.645,27.464 223.108,27.446 224.59,27.481 C225.084,27.498 225.401,27.341 225.701,26.958 C227.958,24.289 230.233,21.637 232.473,18.951 C232.826,18.532 233.179,18.34 233.743,18.375 C234.413,18.427 235.083,18.392 235.983,18.392 C233.02,21.899 230.18,25.265 227.306,28.667 C230.163,32.017 233.002,35.383 236,38.907 Z" id="路径"></path>
                <path d="M177.695,38.855 C176.831,38.855 176.125,38.855 175.349,38.855 C175.349,32.802 175.349,26.783 175.349,20.66 C172.245,20.66 169.23,20.66 166.179,20.66 C166.179,19.858 166.179,19.142 166.179,18.392 C173.092,18.392 179.935,18.392 186.848,18.392 C186.848,19.125 186.848,19.823 186.848,20.625 C183.832,20.625 180.834,20.625 177.713,20.625 C177.695,26.766 177.695,32.784 177.695,38.855 Z" id="路径"></path>
                <path d="M26.608,3.215 C26.378,3.268 26.149,3.338 25.937,3.407 C20.876,4.942 15.797,6.478 10.735,8.013 C10.506,8.083 10.294,8.17 10.065,8.222 C9.395,8.379 8.813,8.117 8.619,7.559 C8.407,6.931 8.672,6.373 9.377,6.111 C9.977,5.885 10.594,5.71 11.211,5.536 C15.991,4.053 20.788,2.622 25.567,1.157 C26.272,0.948 26.907,0.93 27.613,1.157 C32.921,2.779 38.247,4.384 43.573,5.989 C43.803,6.059 44.032,6.111 44.244,6.199 C44.878,6.46 45.178,7.018 44.984,7.594 C44.79,8.187 44.244,8.484 43.591,8.309 C42.85,8.117 42.127,7.891 41.404,7.664 C36.731,6.251 32.057,4.838 27.366,3.425 C27.119,3.338 26.854,3.285 26.608,3.215 Z" id="路径"></path>
                <path d="M199.528,18.392 C200.304,18.392 200.992,18.392 201.733,18.392 C201.733,25.213 201.733,31.982 201.733,38.837 C201.027,38.837 200.322,38.837 199.528,38.837 C199.528,32.051 199.528,25.248 199.528,18.392 Z" id="路径"></path>
            </g>
            <path d="M572.5,4.13375 C573.167,4.51865 573.167,5.4809 572.5,5.8658 L566.5,9.3299 C565.833,9.7148 565,9.23367 565,8.46387 L565,5.49592 L510.286,5.49591 L510.286,184.996 C510.286,186.1 509.391,186.996 508.286,186.996 L438,186.996 C437.448,186.996 437,186.548 437,185.996 C437,185.444 437.448,184.996 438,184.996 L508.286,184.996 L508.286,5.49592 C508.286,4.39133 509.181,3.49592 510.286,3.49592 L565,3.49592 L565,1.53567 C565,0.765871 565.833,0.284746 566.5,0.669646 L572.5,4.13375 Z M510.5,447.496 C509.395,447.496 508.5,446.601 508.5,445.496 L508.5,254.996 L438,254.996 C437.448,254.996 437,254.548 437,253.996 C437,253.444 437.448,252.996 438,252.996 L508.5,252.996 C509.605,252.996 510.5,253.891 510.5,254.996 L510.5,445.496 L565,445.496 L565,443.532 C565,442.762 565.833,442.281 566.5,442.666 L572.5,446.13 C573.167,446.515 573.167,447.477 572.5,447.862 L566.5,451.326 C565.833,451.711 565,451.23 565,450.46 L565,447.496 L510.5,447.496 Z M572.5,220.13 C573.167,220.515 573.167,221.477 572.5,221.862 L566.5,225.326 C565.833,225.711 565,225.23 565,224.46 L565,221.996 L438,221.996 C437.448,221.996 437,221.548 437,220.996 C437,220.444 437.448,219.996 438,219.996 L565,219.996 L565,217.532 C565,216.762 565.833,216.281 566.5,216.666 L572.5,220.13 Z" id="形状" fill="url(#linearGradient-1)"></path>
        </g>
    </g>
</svg>