<svg viewBox="0 0 88 35" fill="none" xmlns="http://www.w3.org/2000/svg">
<rect x="0.25" y="0.25" width="87.5" height="34.5" rx="1.75" fill="white" stroke="#B3B3B3" stroke-width="0.5"/>
<path fill-rule="evenodd" clip-rule="evenodd" d="M48.9433 13.7621L47.422 12.8657L47.309 13.0413C46.9623 13.5816 46.4885 13.8555 45.9012 13.855C44.8951 13.8545 44.1367 13.1018 44.1373 12.104C44.1378 11.1063 44.897 10.3546 45.9031 10.355C46.4987 10.3555 46.9462 10.615 47.3111 11.1718L47.4248 11.3448L48.9531 10.4465L48.821 10.257C48.091 9.20829 47.1367 8.69846 45.9042 8.69758C43.5739 8.69653 42.3155 10.4513 42.3148 12.1027C42.3139 13.7546 43.5701 15.5109 45.9003 15.5119C47.0874 15.5126 48.2075 14.9138 48.8238 13.949L48.9433 13.7621ZM53.1874 10.0468L54.0386 12.1662L52.3245 12.1651L53.1874 10.0468ZM48.867 15.5137L50.9704 15.5149L51.5952 13.9733L54.7515 13.9751L55.3747 15.5171L57.487 15.5185L53.7193 6.48386L51.8432 6.48264L52.3427 7.68035L48.867 15.5137ZM58.3578 15.5187L60.2033 15.5198L60.2056 11.4652L61.409 11.4659L61.4099 9.76478L60.2065 9.76408L60.207 8.96019C60.207 8.61529 60.4401 8.2489 60.8718 8.24907C61.109 8.24925 61.2522 8.28943 61.3948 8.35006L61.6004 8.43777L62.367 6.77792L62.1462 6.68846C61.8032 6.54886 61.3255 6.49888 60.9923 6.49871C60.1554 6.49819 59.4655 6.76953 58.9969 7.28304C58.5875 7.73137 58.3618 8.35513 58.3613 9.03864L58.3608 9.76304L57.5459 9.76269L57.545 11.4638L58.3601 11.464L58.3578 15.5187Z" fill="#AD262A"/>
<path fill-rule="evenodd" clip-rule="evenodd" d="M33.614 6.43021V15.505L35.6195 15.5064L35.6223 10.318L37.5655 11.7544L39.5108 10.318V15.5085L41.5135 15.5092L41.5184 6.43021L37.5669 9.39121L33.614 6.43021Z" fill="#AD262A"/>
<path fill-rule="evenodd" clip-rule="evenodd" d="M63.9558 11.2864C64.1966 10.6674 64.7166 10.3061 65.3883 10.3062C66.067 10.3066 66.597 10.6606 66.8779 11.288L63.9558 11.2864ZM65.5654 8.72885C63.2423 8.72763 61.9876 10.4773 61.9864 12.1239C61.9859 13.771 63.2385 15.5217 65.5617 15.5231H65.5641C66.6294 15.5115 67.6283 15.0304 68.4016 14.1622L66.8964 13.3481C66.5103 13.74 66.0416 13.9462 65.5245 13.9459C64.7665 13.9453 64.0943 13.4444 63.9184 12.7894L68.9382 12.792L68.9385 12.34C68.9398 9.85057 66.9668 8.72955 65.5654 8.72885ZM71.5005 11.2906C71.7411 10.6716 72.2606 10.3101 72.9328 10.3106C73.6115 10.3108 74.1417 10.6649 74.4226 11.2924L71.5005 11.2906ZM73.1097 8.73305C70.7865 8.73165 69.5323 10.4813 69.5313 12.1281C69.5302 13.7753 70.7826 15.5259 73.1062 15.5271H73.1085C74.1739 15.5157 75.173 15.0342 75.946 14.1664L74.4407 13.3523C74.0546 13.7442 73.5861 13.9504 73.0692 13.9501C72.3108 13.9495 71.6386 13.4488 71.4629 12.7936L76.4825 12.7962L76.483 12.3442C76.4844 9.85476 74.5114 8.73374 73.1097 8.73305Z" fill="#AD262A"/>
<path fill-rule="evenodd" clip-rule="evenodd" d="M77.5299 18.2483H78.75V18.4744H78.2705V19.7421H78.0073V18.4744H77.5299V18.2483Z" fill="#4C4F4F"/>
<path fill-rule="evenodd" clip-rule="evenodd" d="M78.9208 18.2483H79.2925L79.7083 19.418H79.7125L80.1178 18.2483H80.4846V19.7421H80.2333V18.5892H80.2291L79.8119 19.7421H79.5942L79.1756 18.5892H79.1721V19.7421H78.9208V18.2483Z" fill="#4C4F4F"/>
<path fill-rule="evenodd" clip-rule="evenodd" d="M39.3131 24.4655C39.3131 25.2427 39.031 25.8551 38.467 26.3024C37.9028 26.75 37.118 26.9737 36.1128 26.9737C35.1863 26.9737 34.367 26.801 33.6546 26.4556V24.7599C34.2403 25.0191 34.7361 25.2016 35.1419 25.3075C35.5475 25.4134 35.9186 25.4665 36.2551 25.4665C36.659 25.4665 36.9686 25.39 37.1844 25.2369C37.4001 25.0839 37.5081 24.8562 37.5081 24.5538C37.5081 24.3852 37.4605 24.2349 37.3655 24.1033C37.2706 23.9719 37.131 23.8454 36.9469 23.7237C36.7629 23.6021 36.3876 23.4078 35.8217 23.1408C35.2913 22.8936 34.8935 22.6559 34.6283 22.4283C34.3629 22.2008 34.1511 21.9357 33.9929 21.6335C33.8345 21.3312 33.7554 20.9781 33.7554 20.5736C33.7554 19.8122 34.0156 19.2136 34.5361 18.7778C35.0568 18.3422 35.776 18.1244 36.6946 18.1244C37.1458 18.1244 37.5763 18.1773 37.9859 18.2834C38.3956 18.3892 38.8241 18.5384 39.2715 18.7308L38.6777 20.1497C38.2145 19.9614 37.8316 19.8298 37.5287 19.7554C37.226 19.6808 36.928 19.6434 36.6352 19.6434C36.2868 19.6434 36.0195 19.7239 35.8337 19.8849C35.6476 20.0458 35.5546 20.2558 35.5546 20.5147C35.5546 20.6758 35.5921 20.8161 35.6673 20.9356C35.7426 21.0555 35.8622 21.1713 36.0266 21.2832C36.1908 21.395 36.5797 21.5963 37.1934 21.8866C38.0048 22.2714 38.5609 22.657 38.8618 23.0437C39.1626 23.4303 39.3131 23.9043 39.3131 24.4655Z" fill="#4C4F4F"/>
<path fill-rule="evenodd" clip-rule="evenodd" d="M45.722 26.8562H40.7226V18.2483H45.722V19.7435H42.5629V21.6335H45.5022V23.1287H42.5629V25.3484H45.722V26.8562Z" fill="#4C4F4F"/>
<path fill-rule="evenodd" clip-rule="evenodd" d="M50.8917 19.6434C50.1989 19.6434 49.6627 19.9015 49.2826 20.4178C48.9028 20.9339 48.7126 21.6532 48.7126 22.5756C48.7126 24.4951 49.4389 25.4546 50.8917 25.4546C51.5013 25.4546 52.2396 25.3037 53.1065 25.0012V26.5321C52.394 26.8266 51.5982 26.9737 50.7195 26.9737C49.4567 26.9737 48.491 26.594 47.8219 25.8345C47.1529 25.075 46.8187 23.9849 46.8187 22.5639C46.8187 21.6689 46.9827 20.885 47.3113 20.2116C47.6398 19.5384 48.1118 19.0223 48.7276 18.663C49.3431 18.304 50.0643 18.1244 50.8917 18.1244C51.7348 18.1244 52.5818 18.3265 53.433 18.7308L52.8392 20.2146C52.5147 20.0615 52.188 19.928 51.8596 19.8141C51.5309 19.7003 51.2083 19.6434 50.8917 19.6434ZM61.745 18.2481V23.818C61.745 24.4537 61.6016 25.0112 61.3148 25.4901C61.0276 25.9688 60.613 26.3359 60.0706 26.591C59.5283 26.8463 58.8873 26.9737 58.1469 26.9737C57.0308 26.9737 56.1639 26.6903 55.5464 26.1229C54.9288 25.5558 54.6201 24.7795 54.6201 23.7944V18.2481H56.4548V23.5177C56.4548 24.1811 56.5895 24.6677 56.8585 24.9776C57.1276 25.288 57.573 25.4428 58.1945 25.4428C58.796 25.4428 59.2324 25.2869 59.5038 24.9749C59.7748 24.6628 59.9105 24.1732 59.9105 23.5058V18.2481H61.745ZM65.342 22.0692H65.9359C66.5178 22.0692 66.9472 21.9731 67.2243 21.7806C67.5013 21.5884 67.64 21.2861 67.64 20.874C67.64 20.4658 67.4985 20.1752 67.2153 20.0026C66.9324 19.8298 66.4941 19.7435 65.9002 19.7435H65.342V22.0692ZM65.342 23.553V26.8559H63.5014V18.2481H66.0309C67.2104 18.2481 68.0833 18.4609 68.6494 18.8868C69.2154 19.3128 69.4983 19.9595 69.4983 20.8268C69.4983 21.3333 69.3577 21.7836 69.0769 22.1781C68.7958 22.5726 68.398 22.8817 67.8833 23.1053C69.1896 25.0407 70.0405 26.2907 70.4366 26.8559H68.3941L66.3218 23.553H65.342Z" fill="#4C4F4F"/>
<mask id="mask0" mask-type="alpha" maskUnits="userSpaceOnUse" x="7" y="5" width="70" height="26">
<path d="M7.03784 5.73721H76.384V30.9813H7.03784V5.73721Z" fill="white"/>
</mask>
<g mask="url(#mask0)">
<path fill-rule="evenodd" clip-rule="evenodd" d="M76.384 26.8562H71.3846V18.2483H76.384V19.7435H73.2256V21.6335H76.1642V23.1287H73.2256V25.3484H76.384V26.8562Z" fill="#4C4F4F"/>
<path fill-rule="evenodd" clip-rule="evenodd" d="M11.5647 22.9866V12.7176L18.0971 15.7136V10.759L7.02734 5.68332V25.858L18.0971 30.9379V25.9833L11.5647 22.9866Z" fill="#AD262A"/>
<path fill-rule="evenodd" clip-rule="evenodd" d="M24.6246 22.9866V12.7176L18.0922 15.7136V10.759L29.162 5.68332V25.858L18.0922 30.9379V25.9833L24.6246 22.9866Z" fill="#5E1D1B"/>
</g>
</svg>
