<svg width="83" height="35" viewBox="0 0 83 35" fill="none" xmlns="http://www.w3.org/2000/svg">
<rect x="0.25" y="0.25" width="82.5" height="34.5" rx="1.75" fill="white" stroke="#B3B3B3" stroke-width="0.5"/>
<path fill-rule="evenodd" clip-rule="evenodd" d="M53.0681 9.35146V17.307L56.8747 17.307L56.8762 17.307C57.7042 17.3034 58.4606 17.1395 59.1391 16.8125L59.1396 16.8122C59.822 16.4818 60.3512 16.0249 60.7232 15.4451C61.0989 14.8627 61.2839 14.2088 61.2839 13.4888L61.2839 13.1439L61.2839 13.1427C61.2795 12.4289 61.0877 11.7784 60.7036 11.1964C60.3234 10.6106 59.7899 10.1549 59.1056 9.83451C58.4224 9.5111 57.6557 9.35146 56.8126 9.35146H53.0681ZM56.8375 15.4582H55.8027V11.2053H56.8126C57.3833 11.2053 57.7839 11.3647 58.0586 11.6654C58.3422 11.9759 58.5058 12.4634 58.5058 13.1645V13.4888C58.5058 14.193 58.3423 14.6844 58.0582 14.9986C57.782 15.3006 57.3886 15.4582 56.8375 15.4582Z" fill="#357272"/>
<path d="M66.2785 14.6465L66.2795 14.6471L66.2805 14.6478C66.4337 14.7471 66.516 14.883 66.516 15.0851C66.516 15.2517 66.4463 15.363 66.3109 15.4468C66.167 15.5349 65.9484 15.5921 65.6244 15.5921C65.0893 15.5921 64.7652 15.5012 64.5872 15.3692C64.4161 15.236 64.304 15.0118 64.304 14.6474V14.4181H61.5633V14.6474C61.5633 15.1819 61.7253 15.6637 62.0552 16.0851L62.056 16.0862L62.0568 16.0872C62.3932 16.5072 62.8854 16.8315 63.5166 17.0656L63.5177 17.066L63.5187 17.0664C64.1544 17.2968 64.8578 17.41 65.6244 17.41C66.7015 17.41 67.5858 17.2163 68.246 16.8023C68.9162 16.3819 69.2505 15.7974 69.2505 15.0748C69.2505 14.1595 68.6946 13.4462 67.6456 12.9453C67.2213 12.7423 66.6879 12.5579 66.0508 12.3901C65.4309 12.2234 65.032 12.0717 64.8222 11.9417C64.6171 11.8111 64.5588 11.6968 64.5588 11.5991C64.5588 11.4559 64.6254 11.3415 64.785 11.2411L64.7856 11.2407C64.9506 11.1363 65.1934 11.0715 65.5436 11.0715C65.8797 11.0715 66.1112 11.144 66.2712 11.2643L66.2721 11.265L66.2731 11.2657C66.4298 11.3814 66.5222 11.5502 66.5222 11.8051V12.0343H69.2505V11.8051C69.2505 11.3068 69.0937 10.8568 68.7753 10.4628C68.4578 10.0664 68.0134 9.76509 67.453 9.55698C66.8985 9.34955 66.2768 9.24847 65.5933 9.24847C64.8968 9.24847 64.2605 9.34168 63.6887 9.53255C63.1166 9.72006 62.6582 9.98992 62.3284 10.3478L62.3282 10.3481C61.9997 10.7058 61.8367 11.1207 61.8367 11.5837C61.8367 12.5323 62.5162 13.2542 63.7498 13.7563C64.1253 13.9101 64.6018 14.0665 65.1759 14.2262C65.7389 14.3828 66.095 14.5254 66.2785 14.6465Z" fill="#357272"/>
<path d="M74.2452 14.6465L74.2462 14.6471L74.2471 14.6478C74.4004 14.7471 74.4827 14.883 74.4827 15.0851C74.4827 15.2518 74.4129 15.363 74.2774 15.4468C74.1336 15.5349 73.9149 15.5921 73.591 15.5921C73.0559 15.5921 72.7318 15.5012 72.5539 15.3692C72.3827 15.2359 72.2707 15.0118 72.2707 14.6474V14.4181H69.5299V14.6474C69.5299 15.1819 69.692 15.6637 70.0219 16.0851L70.0227 16.0862L70.0235 16.0872C70.3599 16.5072 70.8521 16.8315 71.4833 17.0656L71.4843 17.066L71.4854 17.0664C72.1211 17.2968 72.8244 17.41 73.591 17.41C74.6682 17.41 75.5524 17.2163 76.2127 16.8023C76.8828 16.3819 77.2172 15.7974 77.2172 15.0748C77.2172 14.1595 76.6611 13.4461 75.6121 12.9452C75.1878 12.7423 74.6545 12.5579 74.0176 12.3901C73.3976 12.2234 72.9986 12.0717 72.7888 11.9417C72.5837 11.8111 72.5254 11.6967 72.5254 11.5991C72.5254 11.4559 72.5921 11.3415 72.7516 11.2411L72.7523 11.2407C72.9172 11.1363 73.16 11.0715 73.5103 11.0715C73.8464 11.0715 74.0779 11.144 74.2378 11.2643L74.2388 11.265L74.2397 11.2657C74.3965 11.3814 74.4889 11.5502 74.4889 11.8051V12.0343H77.2172V11.8051C77.2172 11.3067 77.0603 10.8567 76.7419 10.4627C76.4244 10.0664 75.98 9.76506 75.4196 9.55698C74.8651 9.34955 74.2435 9.24847 73.56 9.24847C72.8634 9.24847 72.2271 9.34169 71.6553 9.53257C71.0832 9.72008 70.6248 9.98993 70.2951 10.3478L70.2948 10.3481C69.9664 10.7058 69.8033 11.1207 69.8033 11.5837C69.8033 12.5323 70.4829 13.2542 71.7164 13.7563C72.092 13.9101 72.5685 14.0665 73.1426 14.2262C73.7055 14.3828 74.0617 14.5254 74.2452 14.6465Z" fill="#357272"/>
<path d="M55.4012 20.7006C55.3914 20.8898 55.3341 21.0572 55.2292 21.2029C55.1244 21.3473 54.9769 21.4593 54.7867 21.5389C54.598 21.6186 54.382 21.6584 54.1387 21.6584C53.7375 21.6584 53.4215 21.5421 53.1908 21.3093C52.9601 21.0765 52.8448 20.7479 52.8448 20.3235V20.189C52.8448 19.9227 52.8965 19.6899 53 19.4907C53.1048 19.2903 53.2551 19.136 53.4509 19.0277C53.6466 18.9182 53.8731 18.8634 54.1303 18.8634C54.5008 18.8634 54.7986 18.9505 55.0237 19.1248C55.2488 19.2978 55.3767 19.5368 55.4075 19.8418H54.6735C54.6679 19.6762 54.621 19.5573 54.533 19.4851C54.4449 19.4129 54.3107 19.3769 54.1303 19.3769C53.9472 19.3769 53.813 19.4378 53.7277 19.5598C53.6424 19.6818 53.5977 19.8766 53.5935 20.1442V20.3365C53.5935 20.6266 53.634 20.8338 53.7151 20.9583C53.7976 21.0827 53.9388 21.145 54.1387 21.145C54.3079 21.145 54.4372 21.1095 54.5267 21.0386C54.6162 20.9676 54.6637 20.855 54.6693 20.7006H55.4012Z" fill="#357272"/>
<path d="M58.335 20.3179C58.335 20.583 58.2798 20.8176 58.1694 21.0218C58.0589 21.2259 57.9016 21.3834 57.6975 21.4941C57.4948 21.6037 57.2634 21.6584 57.0034 21.6584C56.7433 21.6584 56.5126 21.6055 56.3113 21.4997C56.11 21.3927 55.9527 21.2402 55.8395 21.0423C55.7276 20.8444 55.6689 20.6172 55.6633 20.3608V20.2077C55.6633 19.9413 55.7178 19.7067 55.8269 19.5038C55.9373 19.2997 56.0946 19.1422 56.2987 19.0314C56.5043 18.9207 56.7377 18.8653 56.9992 18.8653C57.2578 18.8653 57.4885 18.92 57.6912 19.0296C57.8939 19.1391 58.0512 19.2953 58.1631 19.4982C58.2763 19.6999 58.3336 19.9314 58.335 20.1928V20.3179ZM57.5864 20.204C57.5864 19.9339 57.5353 19.7291 57.4333 19.5897C57.3326 19.449 57.1879 19.3787 56.9992 19.3787C56.6301 19.3787 56.435 19.6252 56.4141 20.1181L56.412 20.3179C56.412 20.5842 56.4616 20.789 56.5609 20.9321C56.6601 21.0753 56.8076 21.1469 57.0034 21.1469C57.1893 21.1469 57.3326 21.0765 57.4333 20.9359C57.5339 20.7952 57.585 20.5929 57.5864 20.3291V20.204Z" fill="#357272"/>
<path d="M59.6814 18.9026L60.3629 20.794L61.0424 18.9026H62.0113V21.6211H61.2731V20.9863L61.3444 19.6868L60.6062 21.6211H60.1197L59.3794 19.6849L59.4507 20.9863V21.6211H58.7146V18.9026H59.6814Z" fill="#357272"/>
<path d="M63.2171 20.6988V21.6211H62.481V18.9026H63.6995C63.9329 18.9026 64.1392 18.9412 64.3181 19.0184C64.4985 19.0943 64.6376 19.2032 64.7354 19.3451C64.8347 19.4858 64.8843 19.6457 64.8843 19.825C64.8843 20.0901 64.7774 20.3023 64.5635 20.4616C64.351 20.6197 64.0588 20.6988 63.6869 20.6988H63.2171ZM63.2171 20.1928H63.6995C63.8421 20.1928 63.9504 20.161 64.0245 20.0975C64.1 20.0341 64.1378 19.9444 64.1378 19.8287C64.1378 19.7017 64.0993 19.6003 64.0224 19.5244C63.9455 19.4484 63.8407 19.4098 63.7078 19.4086H63.2171V20.1928Z" fill="#357272"/>
<path d="M66.0147 21.117H67.296V21.6211H65.2786V18.9026H66.0147V21.117Z" fill="#357272"/>
<path d="M68.3907 21.6211H67.6567V18.9026H68.3907V21.6211Z" fill="#357272"/>
<path d="M70.6745 21.1132H69.6658L69.4896 21.6211H68.7032L69.823 18.9026H70.5151L71.6433 21.6211H70.8527L70.6745 21.1132ZM69.8419 20.6073H70.4983L70.1691 19.6644L69.8419 20.6073Z" fill="#357272"/>
<path d="M74.4178 21.6211H73.6859L72.6038 19.9295V21.6211H71.8677V18.9026H72.6038L73.6838 20.5942V18.9026H74.4178V21.6211Z" fill="#357272"/>
<path d="M77.2175 19.4086H76.301V21.6211H75.5649V19.4086H74.6653V18.9026H77.2175V19.4086Z" fill="#357272"/>
<path d="M33.727 32C32.2065 29.2721 27.9133 23.3727 25.9568 20.764L27.5779 19.1988C29.199 20.3354 32.6984 22.81 33.727 23.6149C41.0164 14.6261 46.3792 10.4783 48.1493 9.52798H50.2736C47.3108 12.2112 39.8537 20.4622 33.727 32Z" fill="#58B058"/>
<path fill-rule="evenodd" clip-rule="evenodd" d="M13.6628 26.921L11.2824 20.584C11.4011 20.5665 11.775 20.5662 12.9512 20.5662H14.6754V17.8961H15.469C15.9799 17.8961 16.2627 17.8866 16.2627 17.8694C16.2627 17.8542 16.3448 17.8427 16.4542 17.8427C16.5637 17.8427 16.6458 17.8313 16.6458 17.816C16.6458 17.8008 16.7279 17.7893 16.8374 17.7893C16.9468 17.7893 17.0289 17.7779 17.0289 17.7626C17.0289 17.748 17.0782 17.7359 17.1384 17.7359C17.1986 17.7359 17.2479 17.7239 17.2479 17.7092C17.2479 17.6946 17.2971 17.6825 17.3573 17.6825C17.4176 17.6825 17.4668 17.6705 17.4668 17.6558C17.4668 17.6412 17.5161 17.6291 17.5763 17.6291C17.6365 17.6291 17.6858 17.6171 17.6858 17.6024C17.6858 17.5878 17.7104 17.5757 17.7405 17.5757C17.7706 17.5757 17.7952 17.5637 17.7952 17.549C17.7952 17.5344 17.8445 17.5223 17.9047 17.5223C17.9649 17.5223 18.0142 17.5103 18.0142 17.4956C18.0142 17.481 18.0388 17.4689 18.0689 17.4689C18.099 17.4689 18.1236 17.4569 18.1236 17.4422C18.1236 17.4275 18.1483 17.4155 18.1784 17.4155C18.2085 17.4155 18.2331 17.4035 18.2331 17.3888C18.2331 17.3741 18.2577 17.3621 18.2878 17.3621C18.3179 17.3621 18.3426 17.3501 18.3426 17.3354C18.3426 17.3207 18.3672 17.3087 18.3973 17.3087C18.4274 17.3087 18.452 17.2967 18.452 17.282C18.452 17.2673 18.4767 17.2553 18.5068 17.2553C18.5369 17.2553 18.5615 17.2433 18.5615 17.2286C18.5615 17.2139 18.5834 17.2019 18.6102 17.2019C18.637 17.2019 18.6766 17.1779 18.6983 17.1485C18.72 17.1192 18.7597 17.0951 18.7865 17.0951C18.8133 17.0951 18.8352 17.0831 18.8352 17.0684C18.8352 17.0537 18.8544 17.0417 18.878 17.0417C18.9016 17.0417 18.9808 16.9816 19.0541 16.9082C19.1274 16.8348 19.2011 16.7747 19.2178 16.7747C19.2574 16.7747 19.3825 16.6524 19.3825 16.6136C19.3825 16.5971 19.4318 16.5374 19.492 16.481C19.5522 16.4246 19.6014 16.3621 19.6014 16.3421C19.6014 16.3222 19.6261 16.2886 19.6562 16.2674C19.6863 16.2462 19.7109 16.2102 19.7109 16.1873C19.7109 16.1644 19.7355 16.1284 19.7657 16.1072C19.7958 16.086 19.8204 16.0473 19.8204 16.0212C19.8204 15.9951 19.8327 15.9737 19.8478 15.9737C19.8628 15.9737 19.8751 15.9376 19.8751 15.8936C19.8751 15.8495 19.8874 15.8135 19.9025 15.8135C19.9175 15.8135 19.9299 15.7895 19.9299 15.7601C19.9299 15.7307 19.9422 15.7067 19.9572 15.7067C19.9723 15.7067 19.9846 15.6706 19.9846 15.6266C19.9846 15.5825 19.9969 15.5465 20.012 15.5465C20.027 15.5465 20.0393 15.4864 20.0393 15.413C20.0393 15.3395 20.0516 15.2795 20.0667 15.2795C20.084 15.2795 20.0941 15.0837 20.0941 14.7454C20.0941 14.4072 20.084 14.2114 20.0667 14.2114C20.0516 14.2114 20.0393 14.1514 20.0393 14.0779C20.0393 14.0045 20.027 13.9444 20.012 13.9444C19.9969 13.9444 19.9846 13.9084 19.9846 13.8643C19.9846 13.8203 19.9723 13.7842 19.9572 13.7842C19.9422 13.7842 19.9299 13.7482 19.9299 13.7041C19.9299 13.6601 19.9175 13.624 19.9025 13.624C19.8874 13.624 19.8751 13.6 19.8751 13.5706C19.8751 13.5412 19.8628 13.5172 19.8478 13.5172C19.8327 13.5172 19.8204 13.4958 19.8204 13.4697C19.8204 13.4436 19.7958 13.4049 19.7657 13.3837C19.7355 13.3625 19.7109 13.3265 19.7109 13.3036C19.7109 13.2807 19.6863 13.2447 19.6562 13.2235C19.6261 13.2023 19.6014 13.1695 19.6014 13.1505C19.6014 13.1054 19.1478 12.6628 19.1016 12.6628C19.0821 12.6628 19.0484 12.6387 19.0267 12.6094C19.005 12.58 18.9681 12.556 18.9446 12.556C18.9212 12.556 18.8842 12.5319 18.8625 12.5026C18.8408 12.4732 18.8012 12.4492 18.7744 12.4492C18.7476 12.4492 18.7257 12.4372 18.7257 12.4225C18.7257 12.4078 18.7011 12.3958 18.671 12.3958C18.6409 12.3958 18.6162 12.3838 18.6162 12.3691C18.6162 12.3544 18.5916 12.3424 18.5615 12.3424C18.5314 12.3424 18.5068 12.3304 18.5068 12.3157C18.5068 12.301 18.4821 12.289 18.452 12.289C18.4219 12.289 18.3973 12.277 18.3973 12.2623C18.3973 12.2476 18.3727 12.2356 18.3426 12.2356C18.3125 12.2356 18.2878 12.2235 18.2878 12.2089C18.2878 12.1942 18.2509 12.1822 18.2057 12.1822C18.1606 12.1822 18.1236 12.1701 18.1236 12.1555C18.1236 12.1408 18.0867 12.1288 18.0415 12.1288C17.9964 12.1288 17.9594 12.1167 17.9594 12.1021C17.9594 12.0874 17.9225 12.0754 17.8773 12.0754C17.8322 12.0754 17.7952 12.0633 17.7952 12.0487C17.7952 12.034 17.7706 12.022 17.7405 12.022C17.7104 12.022 17.6858 12.0099 17.6858 11.9953C17.6858 11.9806 17.6242 11.9686 17.5489 11.9686C17.4737 11.9686 17.4121 11.9565 17.4121 11.9419C17.4121 11.9272 17.3628 11.9152 17.3026 11.9152C17.2424 11.9152 17.1931 11.9031 17.1931 11.8885C17.1931 11.8738 17.1316 11.8618 17.0563 11.8618C16.9811 11.8618 16.9195 11.8497 16.9195 11.8351C16.9195 11.8195 16.8283 11.8084 16.7005 11.8084C16.5728 11.8084 16.4816 11.7972 16.4816 11.7817C16.4816 11.7655 16.363 11.7549 16.1806 11.7549C15.9981 11.7549 15.8795 11.7444 15.8795 11.7282C15.8795 11.7107 15.0898 11.7015 13.5651 11.7015C11.5957 11.7015 11.2447 11.7072 11.2115 11.7397C11.1779 11.7724 11.1724 12.3886 11.1724 16.0919C11.1724 18.3985 11.1664 19.7917 11.1545 20.2437L6 6.52158L33.7709 5C33.7768 5.00688 33.7776 5.01551 33.7776 5.02633C33.7776 5.0557 33.7899 5.07973 33.805 5.07973C33.82 5.07973 33.8323 5.11578 33.8323 5.15984C33.8323 5.20389 33.8447 5.23994 33.8597 5.23994C33.8748 5.23994 33.8871 5.26397 33.8871 5.29334C33.8871 5.32271 33.8994 5.34674 33.9144 5.34674C33.9295 5.34674 33.9418 5.37077 33.9418 5.40014C33.9418 5.42952 33.9541 5.45355 33.9692 5.45355C33.9842 5.45355 33.9965 5.47758 33.9965 5.50695C33.9965 5.53632 34.0089 5.56035 34.0239 5.56035C34.0286 5.56035 34.0329 5.56264 34.0368 5.56667L34.0494 5.59422C34.0506 5.60028 34.0513 5.60687 34.0513 5.61375C34.0513 5.64312 34.0636 5.66715 34.0786 5.66715C34.0802 5.66715 34.0817 5.66754 34.0832 5.66829L34.1032 5.71199C34.105 5.72265 34.106 5.73462 34.106 5.74726C34.106 5.79131 34.1183 5.82736 34.1334 5.82736C34.1484 5.82736 34.1607 5.85139 34.1607 5.88076C34.1607 5.91013 34.1731 5.93416 34.1881 5.93416C34.2032 5.93416 34.2155 5.95819 34.2155 5.98756C34.2155 6.01693 34.2278 6.04097 34.2428 6.04097C34.2481 6.04097 34.2531 6.04393 34.2572 6.04902L34.2676 6.07168C34.2693 6.07858 34.2702 6.08627 34.2702 6.09437C34.2702 6.12374 34.2825 6.14777 34.2976 6.14777C34.2995 6.14777 34.3014 6.14835 34.3032 6.14945L34.3217 6.18997C34.3238 6.20127 34.3249 6.21418 34.3249 6.22787C34.3249 6.27193 34.3373 6.30797 34.3523 6.30797C34.3674 6.30797 34.3797 6.33201 34.3797 6.36138C34.3797 6.39075 34.392 6.41478 34.407 6.41478C34.4221 6.41478 34.4344 6.43881 34.4344 6.46818C34.4344 6.49755 34.4467 6.52158 34.4618 6.52158C34.4679 6.52158 34.4735 6.52553 34.4781 6.53215L34.4855 6.54837C34.4878 6.55621 34.4891 6.56531 34.4891 6.57498C34.4891 6.60435 34.5015 6.62838 34.5165 6.62838C34.5188 6.62838 34.521 6.62922 34.5232 6.63079L34.54 6.66774C34.5425 6.6797 34.5439 6.69364 34.5439 6.70849C34.5439 6.75254 34.5562 6.78859 34.5712 6.78859C34.5863 6.78859 34.5986 6.81262 34.5986 6.84199C34.5986 6.87136 34.6109 6.89539 34.626 6.89539C34.641 6.89539 34.6533 6.91942 34.6533 6.94879C34.6533 6.97817 34.6657 7.0022 34.6807 7.0022C34.6885 7.0022 34.6955 7.00858 34.7005 7.01879L34.7006 7.01903L34.7016 7.02126L34.7017 7.02148C34.7057 7.03075 34.7081 7.04265 34.7081 7.0556C34.7081 7.08497 34.7204 7.109 34.7355 7.109C34.7379 7.109 34.7403 7.10964 34.7426 7.11085L34.7625 7.15445C34.7627 7.15705 34.7628 7.1597 34.7628 7.1624C34.7628 7.19177 34.7751 7.2158 34.7902 7.2158L34.7906 7.21581L34.8163 7.27217C34.8171 7.27968 34.8176 7.28765 34.8176 7.29591C34.8176 7.33996 34.8299 7.37601 34.8449 7.37601C34.86 7.37601 34.8723 7.40004 34.8723 7.42941C34.8723 7.45878 34.8846 7.48281 34.8997 7.48281C34.9147 7.48281 34.927 7.50684 34.927 7.53621C34.927 7.56558 34.9393 7.58962 34.9544 7.58962C34.9572 7.58962 34.9599 7.59046 34.9625 7.59204L34.9813 7.63307C34.9816 7.63629 34.9818 7.63962 34.9818 7.64302C34.9818 7.67239 34.9941 7.69642 35.0091 7.69642C35.0095 7.69642 35.0099 7.69644 35.0103 7.69649L35.035 7.75064C35.036 7.75877 35.0365 7.76748 35.0365 7.77652C35.0365 7.82058 35.0488 7.85662 35.0639 7.85662C35.0789 7.85662 35.0912 7.88066 35.0912 7.91003C35.0912 7.9394 35.1035 7.96343 35.1186 7.96343C35.1336 7.96343 35.146 7.98746 35.146 8.01683C35.146 8.0462 35.1583 8.07023 35.1733 8.07023C35.1765 8.07023 35.1796 8.07133 35.1825 8.07335L35.2 8.11156C35.2004 8.11544 35.2007 8.11948 35.2007 8.12363C35.2007 8.153 35.213 8.17703 35.2281 8.17703L35.2289 8.17706C35.2293 8.17708 35.2296 8.17712 35.23 8.17716L35.2555 8.23293C35.2561 8.25828 35.2658 8.27915 35.2784 8.28315L35.3099 8.35194C35.3101 8.35585 35.3102 8.35986 35.3102 8.36394C35.3102 8.408 35.3225 8.44404 35.3375 8.44404C35.3526 8.44404 35.3649 8.46807 35.3649 8.49744C35.3649 8.52682 35.3772 8.55085 35.3923 8.55085C35.3959 8.55085 35.3994 8.55226 35.4026 8.55481L35.4186 8.5899C35.4193 8.59447 35.4196 8.59928 35.4196 8.60425C35.4196 8.63362 35.4319 8.65765 35.447 8.65765C35.4475 8.65765 35.4479 8.65767 35.4484 8.65772C35.4488 8.65776 35.4493 8.65783 35.4497 8.65791L35.4744 8.71187C35.4746 8.73854 35.4849 8.76063 35.4982 8.76401L35.5287 8.83071C35.529 8.83521 35.5291 8.83984 35.5291 8.84456C35.5291 8.88861 35.5414 8.92466 35.5565 8.92466C35.5715 8.92466 35.5838 8.94869 35.5838 8.97806C35.5838 9.00743 35.5961 9.03146 35.6112 9.03146C35.6153 9.03146 35.6192 9.03326 35.6227 9.03647L35.6372 9.06805C35.6381 9.07334 35.6386 9.079 35.6386 9.08486C35.6386 9.11423 35.6509 9.13827 35.6659 9.13827C35.6671 9.13827 35.6683 9.13842 35.6695 9.13871L35.6933 9.19085L35.6933 9.19167C35.6933 9.22104 35.7034 9.24507 35.7157 9.24507C35.7166 9.24507 35.7175 9.24535 35.7185 9.24591L35.7688 9.35601C35.771 9.36335 35.7733 9.37089 35.7754 9.37857C35.7959 9.452 35.8227 9.51208 35.8351 9.51208C35.8356 9.51208 35.8362 9.51213 35.8367 9.51222C35.837 9.51227 35.8374 9.51235 35.8377 9.51244C35.8388 9.51275 35.8399 9.51326 35.841 9.51397L35.8561 9.54709C35.857 9.55283 35.8575 9.55903 35.8575 9.56548C35.8575 9.59485 35.8698 9.61888 35.8849 9.61888C35.8864 9.61888 35.8878 9.61912 35.8893 9.61957L35.9122 9.66979L35.9122 9.67104L35.9122 9.67228C35.9122 9.7004 35.9235 9.72363 35.9377 9.72555L35.9677 9.79116C35.9698 9.80888 35.9765 9.82329 35.9851 9.82937L36.0217 9.9093L36.0217 9.91259C36.0217 9.95665 36.034 9.99269 36.0491 9.99269C36.0543 9.99269 36.0593 9.99564 36.0635 10.0007L36.0738 10.0234C36.0755 10.0303 36.0764 10.038 36.0764 10.0461C36.0764 10.0755 36.0888 10.0995 36.1038 10.0995C36.1042 10.0995 36.1047 10.0995 36.1051 10.0996C36.1056 10.0996 36.1061 10.0997 36.1067 10.0998C36.1075 10.1 36.1083 10.1002 36.1091 10.1005L36.1311 10.1487L36.1312 10.1509L36.1312 10.1529C36.1312 10.1815 36.1429 10.2051 36.1574 10.2063L36.1864 10.2697C36.1883 10.2891 36.1956 10.3048 36.2051 10.3107L36.2955 10.5084C36.297 10.5486 36.3087 10.5801 36.3227 10.5801C36.3249 10.5801 36.3269 10.5806 36.3289 10.5815L36.3499 10.6275C36.35 10.6288 36.3501 10.6302 36.3501 10.6316L36.3501 10.6335C36.3501 10.6626 36.3622 10.6865 36.3771 10.6869L36.4051 10.7483C36.4068 10.7693 36.4147 10.7864 36.4251 10.7919L36.5144 10.9873C36.5156 11.0283 36.5274 11.0607 36.5417 11.0607C36.5431 11.0607 36.5445 11.0609 36.5459 11.0614C36.5469 11.0617 36.5479 11.0621 36.5488 11.0626L36.5687 11.1062C36.5689 11.1088 36.569 11.1114 36.569 11.1141C36.569 11.1435 36.5814 11.1675 36.5964 11.1675L36.5968 11.1675L36.624 11.227C36.6253 11.2495 36.6338 11.2679 36.645 11.273L36.6822 11.3544C36.6841 11.3607 36.6866 11.3662 36.6896 11.3706L36.7333 11.4662C36.7342 11.508 36.7461 11.5413 36.7606 11.5413C36.7634 11.5413 36.7662 11.5422 36.7687 11.5438L36.7875 11.5848C36.7878 11.588 36.788 11.5913 36.788 11.5947C36.788 11.6241 36.8003 11.6481 36.8153 11.6481C36.8157 11.6481 36.8161 11.6482 36.8165 11.6482L36.8428 11.7058C36.8438 11.7297 36.853 11.7494 36.8648 11.754L36.9001 11.8311C36.9023 11.8404 36.9059 11.8483 36.9104 11.8537L37.0076 12.0663C37.0104 12.102 37.0213 12.1288 37.0343 12.1288L37.0351 12.1288C37.0354 12.1288 37.0358 12.1288 37.0362 12.1289L37.0617 12.1847C37.0623 12.21 37.0721 12.2309 37.0846 12.2349L37.1183 12.3085C37.1207 12.3203 37.1252 12.3301 37.1309 12.3361L37.2264 12.545C37.2289 12.5816 37.24 12.6094 37.2532 12.6094C37.2541 12.6094 37.255 12.6095 37.2559 12.6096L37.2806 12.6636C37.2808 12.6903 37.2912 12.7124 37.3044 12.7157L37.3367 12.7864C37.3391 12.8004 37.3444 12.8118 37.3512 12.818L37.5016 13.1471C37.5054 13.1738 37.5139 13.1933 37.5241 13.1964L37.5553 13.2645C37.5576 13.2805 37.5636 13.2934 37.5713 13.2996L37.7202 13.6254C37.7239 13.654 37.733 13.675 37.7439 13.6772L37.7739 13.7429C37.776 13.7606 37.7827 13.775 37.7914 13.7811L37.9389 14.1038C37.9425 14.1343 37.9522 14.1566 37.9636 14.158L37.9926 14.2214C37.9945 14.2408 38.0018 14.2566 38.0114 14.2624L38.2155 14.7091C38.2191 14.7248 38.2244 14.7366 38.2306 14.7421L39.1454 16.7436C38.2007 17.7357 37.1986 18.8327 36.1456 20.0407L34.6741 20.491C34.6603 20.156 34.6533 18.7047 34.6533 16.172C34.6533 12.3993 34.6478 11.7724 34.6142 11.7397C34.5812 11.7074 34.3104 11.7015 32.8628 11.7015H31.1504V20.5662H32.8198C33.6369 20.5662 34.1642 20.5714 34.3792 20.5812L31.5327 21.4523C30.954 21.0377 30.3438 20.6036 29.7654 20.1939C29.7791 20.1187 29.782 19.992 29.782 19.7805C29.782 19.5033 29.7718 19.338 29.7546 19.338C29.7372 19.338 29.7273 19.1066 29.7273 18.6972C29.7273 18.0742 29.7257 18.0564 29.6725 18.0564C29.6424 18.0564 29.6178 18.0684 29.6178 18.0831C29.6178 18.0977 29.5809 18.1098 29.5357 18.1098C29.4905 18.1098 29.4536 18.1218 29.4536 18.1365C29.4536 18.1511 29.4167 18.1632 29.3715 18.1632C29.3263 18.1632 29.2894 18.1752 29.2894 18.1899C29.2894 18.2045 29.2525 18.2166 29.2073 18.2166C29.1621 18.2166 29.1252 18.2286 29.1252 18.2433C29.1252 18.2579 29.0883 18.27 29.0431 18.27C28.9979 18.27 28.961 18.282 28.961 18.2967C28.961 18.3113 28.9117 18.3234 28.8515 18.3234C28.7913 18.3234 28.7421 18.3354 28.7421 18.3501C28.7421 18.3647 28.6928 18.3768 28.6326 18.3768C28.5724 18.3768 28.5231 18.3888 28.5231 18.4035C28.5231 18.4181 28.4739 18.4302 28.4137 18.4302C28.3534 18.4302 28.3042 18.4422 28.3042 18.4569C28.3042 18.4724 28.213 18.4836 28.0852 18.4836C27.9575 18.4836 27.8663 18.4947 27.8663 18.5103C27.8663 18.5272 27.6565 18.537 27.2916 18.537C26.9267 18.537 26.7169 18.5272 26.7169 18.5103C26.7169 18.4954 26.6439 18.4836 26.5527 18.4836C26.4615 18.4836 26.3885 18.4717 26.3885 18.4569C26.3885 18.4422 26.3515 18.4302 26.3064 18.4302C26.2612 18.4302 26.2243 18.4181 26.2243 18.4035C26.2243 18.3888 26.175 18.3768 26.1148 18.3768C26.0546 18.3768 26.0054 18.3647 26.0054 18.3501C26.0054 18.3354 25.9807 18.3234 25.9506 18.3234C25.9205 18.3234 25.8959 18.3113 25.8959 18.2967C25.8959 18.282 25.8589 18.27 25.8138 18.27C25.7686 18.27 25.7317 18.2579 25.7317 18.2433C25.7317 18.2286 25.707 18.2166 25.6769 18.2166C25.6468 18.2166 25.6222 18.2045 25.6222 18.1899C25.6222 18.1752 25.6003 18.1632 25.5735 18.1632C25.5467 18.1632 25.5071 18.1391 25.4854 18.1098C25.4637 18.0804 25.4289 18.0564 25.4082 18.0564C25.3875 18.0564 25.336 18.0203 25.2938 17.9763C25.2516 17.9322 25.2032 17.8961 25.1863 17.8961C25.1462 17.8961 24.9107 17.6663 24.9107 17.6272C24.9107 17.6107 24.8737 17.5635 24.8286 17.5223C24.7834 17.4812 24.7465 17.4283 24.7465 17.4048C24.7465 17.3813 24.7341 17.3621 24.7191 17.3621C24.704 17.3621 24.6917 17.3381 24.6917 17.3087C24.6917 17.2794 24.6794 17.2553 24.6644 17.2553C24.6493 17.2553 24.637 17.2313 24.637 17.2019C24.637 17.1726 24.6247 17.1485 24.6096 17.1485C24.5946 17.1485 24.5823 17.1245 24.5823 17.0951C24.5823 17.0658 24.5699 17.0417 24.5549 17.0417C24.5398 17.0417 24.5275 17.0057 24.5275 16.9616C24.5275 16.9176 24.5152 16.8815 24.5002 16.8815C24.4851 16.8815 24.4728 16.8335 24.4728 16.7747C24.4728 16.716 24.4605 16.6679 24.4454 16.6679C24.428 16.6679 24.4181 16.4632 24.4181 16.1072C24.4181 15.7512 24.428 15.5465 24.4454 15.5465C24.4605 15.5465 24.4728 15.4984 24.4728 15.4397C24.4728 15.3809 24.4851 15.3329 24.5002 15.3329C24.5152 15.3329 24.5275 15.2968 24.5275 15.2528C24.5275 15.2087 24.5398 15.1727 24.5549 15.1727C24.5699 15.1727 24.5823 15.1486 24.5823 15.1193C24.5823 15.0899 24.5946 15.0659 24.6096 15.0659C24.6247 15.0659 24.637 15.0418 24.637 15.0125C24.637 14.9831 24.6493 14.9591 24.6644 14.9591C24.6794 14.9591 24.6917 14.935 24.6917 14.9057C24.6917 14.8763 24.704 14.8523 24.7191 14.8523C24.7341 14.8523 24.7465 14.8309 24.7465 14.8047C24.7465 14.7786 24.7711 14.7399 24.8012 14.7187C24.8313 14.6976 24.8559 14.6646 24.8559 14.6456C24.8559 14.6005 25.1999 14.2648 25.2462 14.2648C25.2657 14.2648 25.2995 14.2408 25.3212 14.2114C25.3429 14.1821 25.3798 14.158 25.4033 14.158C25.4267 14.158 25.4637 14.134 25.4854 14.1046C25.5071 14.0753 25.5467 14.0512 25.5735 14.0512C25.6003 14.0512 25.6222 14.0392 25.6222 14.0245C25.6222 14.0098 25.6468 13.9978 25.6769 13.9978C25.707 13.9978 25.7317 13.9858 25.7317 13.9711C25.7317 13.9564 25.7686 13.9444 25.8138 13.9444C25.8589 13.9444 25.8959 13.9324 25.8959 13.9177C25.8959 13.903 25.9328 13.891 25.978 13.891C26.0231 13.891 26.0601 13.879 26.0601 13.8643C26.0601 13.8496 26.1093 13.8376 26.1696 13.8376C26.2298 13.8376 26.279 13.8256 26.279 13.8109C26.279 13.7961 26.352 13.7842 26.4432 13.7842C26.5344 13.7842 26.6074 13.7724 26.6074 13.7575C26.6074 13.7408 26.7716 13.7308 27.0453 13.7308C27.319 13.7308 27.4832 13.7408 27.4832 13.7575C27.4832 13.7728 27.5653 13.7842 27.6747 13.7842C27.7842 13.7842 27.8663 13.7957 27.8663 13.8109C27.8663 13.8256 27.9279 13.8376 28.0031 13.8376C28.0784 13.8376 28.14 13.8496 28.14 13.8643C28.14 13.879 28.1892 13.891 28.2495 13.891C28.3097 13.891 28.3589 13.903 28.3589 13.9177C28.3589 13.9324 28.3959 13.9444 28.441 13.9444C28.4862 13.9444 28.5231 13.9564 28.5231 13.9711C28.5231 13.9858 28.5601 13.9978 28.6052 13.9978C28.6504 13.9978 28.6873 14.0098 28.6873 14.0245C28.6873 14.0392 28.712 14.0512 28.7421 14.0512C28.7722 14.0512 28.7968 14.0632 28.7968 14.0779C28.7968 14.0926 28.8433 14.1046 28.9002 14.1046C28.9722 14.1046 29.0156 14.1208 29.0431 14.158C29.0663 14.1894 29.1139 14.2114 29.1586 14.2114C29.2004 14.2114 29.2347 14.2234 29.2347 14.2381C29.2347 14.2528 29.2593 14.2648 29.2894 14.2648C29.3195 14.2648 29.3441 14.2768 29.3441 14.2915C29.3441 14.3062 29.3688 14.3182 29.3989 14.3182C29.429 14.3182 29.4536 14.3302 29.4536 14.3449C29.4536 14.3596 29.4782 14.3716 29.5083 14.3716C29.5622 14.3716 29.5631 14.3538 29.5631 13.2083C29.5631 11.9827 29.5617 11.9686 29.4419 11.9686C29.4182 11.9686 29.3989 11.9565 29.3989 11.9419C29.3989 11.9272 29.3619 11.9152 29.3168 11.9152C29.2716 11.9152 29.2347 11.9031 29.2347 11.8885C29.2347 11.8738 29.1977 11.8618 29.1526 11.8618C29.1074 11.8618 29.0705 11.8497 29.0705 11.8351C29.0705 11.8204 29.0212 11.8084 28.961 11.8084C28.9008 11.8084 28.8515 11.7963 28.8515 11.7817C28.8515 11.767 28.8023 11.7549 28.7421 11.7549C28.6819 11.7549 28.6326 11.7429 28.6326 11.7282C28.6326 11.7134 28.5596 11.7015 28.4684 11.7015C28.3772 11.7015 28.3042 11.6897 28.3042 11.6748C28.3042 11.6596 28.2221 11.6481 28.1126 11.6481C28.0031 11.6481 27.921 11.6367 27.921 11.6214C27.921 11.6041 27.5379 11.5947 26.8264 11.5947C26.1148 11.5947 25.7317 11.6041 25.7317 11.6214C25.7317 11.6367 25.6496 11.6481 25.5401 11.6481C25.4306 11.6481 25.3485 11.6596 25.3485 11.6748C25.3485 11.6901 25.2664 11.7015 25.157 11.7015C25.0475 11.7015 24.9654 11.713 24.9654 11.7282C24.9654 11.7429 24.9161 11.7549 24.8559 11.7549C24.7957 11.7549 24.7465 11.767 24.7465 11.7817C24.7465 11.7963 24.6972 11.8084 24.637 11.8084C24.5768 11.8084 24.5275 11.8204 24.5275 11.8351C24.5275 11.8497 24.4906 11.8618 24.4454 11.8618C24.4003 11.8618 24.3633 11.8738 24.3633 11.8885C24.3633 11.9031 24.3264 11.9152 24.2812 11.9152C24.2361 11.9152 24.1991 11.9272 24.1991 11.9419C24.1991 11.9565 24.1499 11.9686 24.0897 11.9686C24.0294 11.9686 23.9802 11.9806 23.9802 11.9953C23.9802 12.0099 23.9556 12.022 23.9255 12.022C23.8953 12.022 23.8707 12.034 23.8707 12.0487C23.8707 12.0633 23.8338 12.0754 23.7886 12.0754C23.7435 12.0754 23.7065 12.0874 23.7065 12.1021C23.7065 12.1167 23.6819 12.1288 23.6518 12.1288C23.6217 12.1288 23.597 12.1408 23.597 12.1555C23.597 12.1701 23.5724 12.1822 23.5423 12.1822C23.5122 12.1822 23.4876 12.1942 23.4876 12.2089C23.4876 12.2235 23.4629 12.2356 23.4328 12.2356C23.4027 12.2356 23.3781 12.2476 23.3781 12.2623C23.3781 12.277 23.3535 12.289 23.3234 12.289C23.2933 12.289 23.2686 12.301 23.2686 12.3157C23.2686 12.3304 23.244 12.3424 23.2139 12.3424C23.1838 12.3424 23.1592 12.3544 23.1592 12.3691C23.1592 12.3838 23.1345 12.3958 23.1044 12.3958C23.0743 12.3958 23.0497 12.4078 23.0497 12.4225C23.0497 12.4372 23.0251 12.4492 22.995 12.4492C22.9649 12.4492 22.9402 12.4612 22.9402 12.4759C22.9402 12.4906 22.9206 12.5026 22.8965 12.5026C22.8724 12.5026 22.8182 12.5386 22.776 12.5827C22.7339 12.6267 22.6824 12.6628 22.6616 12.6628C22.6409 12.6628 22.6062 12.6868 22.5845 12.7162C22.5628 12.7456 22.5285 12.7696 22.5082 12.7696C22.488 12.7696 22.4115 12.8297 22.3382 12.9031C22.2648 12.9765 22.1915 13.0366 22.1752 13.0366C22.1364 13.0366 21.7908 13.374 21.7908 13.412C21.7908 13.4281 21.7416 13.4875 21.6813 13.5439C21.6211 13.6004 21.5719 13.6628 21.5719 13.6828C21.5719 13.7027 21.5472 13.7363 21.5171 13.7575C21.487 13.7787 21.4624 13.8147 21.4624 13.8376C21.4624 13.8605 21.4378 13.8965 21.4077 13.9177C21.3776 13.9389 21.3529 13.9776 21.3529 14.0037C21.3529 14.0298 21.3406 14.0512 21.3256 14.0512C21.3105 14.0512 21.2982 14.0753 21.2982 14.1046C21.2982 14.134 21.2859 14.158 21.2708 14.158C21.2558 14.158 21.2435 14.1821 21.2435 14.2114C21.2435 14.2408 21.2312 14.2648 21.2161 14.2648C21.2011 14.2648 21.1887 14.2889 21.1887 14.3182C21.1887 14.3476 21.1764 14.3716 21.1614 14.3716C21.1463 14.3716 21.134 14.3957 21.134 14.425C21.134 14.4544 21.1217 14.4784 21.1066 14.4784C21.0916 14.4784 21.0793 14.5025 21.0793 14.5318C21.0793 14.5612 21.067 14.5852 21.0519 14.5852C21.0369 14.5852 21.0245 14.6213 21.0245 14.6653C21.0245 14.7094 21.0122 14.7454 20.9972 14.7454C20.9821 14.7454 20.9698 14.7815 20.9698 14.8255C20.9698 14.8696 20.9575 14.9057 20.9424 14.9057C20.9274 14.9057 20.9151 14.9537 20.9151 15.0125C20.9151 15.0712 20.9028 15.1193 20.8877 15.1193C20.8727 15.1193 20.8603 15.1673 20.8603 15.2261C20.8603 15.2848 20.848 15.3329 20.833 15.3329C20.817 15.3329 20.8056 15.4219 20.8056 15.5465C20.8056 15.6711 20.7942 15.7601 20.7782 15.7601C20.7612 15.7601 20.7509 15.9114 20.7509 16.1606C20.7509 16.4098 20.7612 16.5611 20.7782 16.5611C20.7942 16.5611 20.8056 16.6501 20.8056 16.7747C20.8056 16.8993 20.817 16.9883 20.833 16.9883C20.848 16.9883 20.8603 17.0484 20.8603 17.1218C20.8603 17.1953 20.8727 17.2553 20.8877 17.2553C20.9028 17.2553 20.9151 17.3034 20.9151 17.3621C20.9151 17.4209 20.9274 17.4689 20.9424 17.4689C20.9575 17.4689 20.9698 17.505 20.9698 17.549C20.9698 17.5931 20.9821 17.6291 20.9972 17.6291C21.0122 17.6291 21.0245 17.6652 21.0245 17.7092C21.0245 17.7533 21.0369 17.7893 21.0519 17.7893C21.067 17.7893 21.0793 17.8134 21.0793 17.8427C21.0793 17.8721 21.0916 17.8961 21.1066 17.8961C21.1217 17.8961 21.134 17.9202 21.134 17.9495C21.134 17.9789 21.1463 18.003 21.1614 18.003C21.1764 18.003 21.1887 18.027 21.1887 18.0564C21.1887 18.0857 21.2011 18.1098 21.2161 18.1098C21.2312 18.1098 21.2435 18.1338 21.2435 18.1632C21.2435 18.1925 21.2558 18.2166 21.2708 18.2166C21.2859 18.2166 21.2982 18.2406 21.2982 18.27C21.2982 18.2993 21.3105 18.3234 21.3256 18.3234C21.3406 18.3234 21.3529 18.3447 21.3529 18.3709C21.3529 18.397 21.3776 18.4357 21.4077 18.4569C21.4378 18.478 21.4624 18.5141 21.4624 18.537C21.4624 18.5599 21.487 18.5959 21.5171 18.6171C21.5472 18.6382 21.5719 18.6719 21.5719 18.6918C21.5719 18.7118 21.6211 18.7742 21.6813 18.8307C21.7416 18.8871 21.7908 18.9465 21.7908 18.9627C21.7908 19.0009 22.0815 19.2846 22.1208 19.2846C22.1373 19.2846 22.1982 19.3327 22.2561 19.3914C22.3139 19.4501 22.3757 19.4982 22.3934 19.4982C22.4112 19.4982 22.4602 19.5342 22.5024 19.5783C22.5445 19.6224 22.596 19.6584 22.6168 19.6584C22.6375 19.6584 22.6722 19.6824 22.6939 19.7118C22.7156 19.7412 22.7553 19.7652 22.7821 19.7652C22.8088 19.7652 22.8308 19.7772 22.8308 19.7919C22.8308 19.8066 22.8554 19.8186 22.8855 19.8186C22.9156 19.8186 22.9402 19.8306 22.9402 19.8453C22.9402 19.86 22.9622 19.872 22.9889 19.872C23.0157 19.872 23.0554 19.896 23.0771 19.9254C23.1003 19.9568 23.1479 19.9788 23.1926 19.9788C23.2344 19.9788 23.2686 19.9908 23.2686 20.0055C23.2686 20.0202 23.2933 20.0322 23.3234 20.0322C23.3535 20.0322 23.3781 20.0442 23.3781 20.0589C23.3781 20.0736 23.4027 20.0856 23.4328 20.0856C23.4629 20.0856 23.4876 20.0976 23.4876 20.1123C23.4876 20.127 23.5122 20.139 23.5423 20.139C23.5724 20.139 23.597 20.151 23.597 20.1657C23.597 20.1804 23.6217 20.1924 23.6518 20.1924C23.6819 20.1924 23.7065 20.2044 23.7065 20.2191C23.7065 20.2338 23.7558 20.2458 23.816 20.2458C23.8762 20.2458 23.9255 20.2578 23.9255 20.2725C23.9255 20.2872 23.9624 20.2992 24.0076 20.2992C24.0527 20.2992 24.0897 20.3112 24.0897 20.3259C24.0897 20.3406 24.1143 20.3526 24.1444 20.3526C24.1745 20.3526 24.1991 20.3646 24.1991 20.3793C24.1991 20.394 24.2607 20.406 24.336 20.406C24.4112 20.406 24.4728 20.418 24.4728 20.4327C24.4728 20.4474 24.5097 20.4594 24.5549 20.4594C24.6 20.4594 24.637 20.4714 24.637 20.4861C24.637 20.5008 24.6986 20.5128 24.7738 20.5128C24.8491 20.5128 24.9107 20.5248 24.9107 20.5395C24.9107 20.5544 24.9837 20.5662 25.0749 20.5662C25.1661 20.5662 25.2391 20.5781 25.2391 20.5929C25.2391 20.6085 25.3303 20.6196 25.458 20.6196C25.4594 20.6196 25.4608 20.6196 25.4622 20.6196L25.3619 20.7165L25.5987 21.0323C25.9756 21.5348 26.4378 22.1576 26.9493 22.855L13.6628 26.921ZM33.285 7.0556C33.1938 7.0556 33.1208 7.04374 33.1208 7.0289C33.1208 7.01333 33.0296 7.0022 32.9019 7.0022C32.7741 7.0022 32.6829 7.01333 32.6829 7.0289C32.6829 7.04374 32.6099 7.0556 32.5187 7.0556C32.4275 7.0556 32.3545 7.06745 32.3545 7.0823C32.3545 7.09698 32.3053 7.109 32.245 7.109C32.1848 7.109 32.1356 7.12102 32.1356 7.1357C32.1356 7.15039 32.0986 7.1624 32.0535 7.1624C32.0083 7.1624 31.9714 7.17442 31.9714 7.1891C31.9714 7.20379 31.9467 7.2158 31.9166 7.2158C31.8865 7.2158 31.8619 7.22782 31.8619 7.2425C31.8619 7.25719 31.8373 7.26921 31.8072 7.26921C31.7771 7.26921 31.7524 7.28122 31.7524 7.29591C31.7524 7.31059 31.7305 7.32261 31.7038 7.32261C31.677 7.32261 31.6373 7.34664 31.6156 7.37601C31.5939 7.40538 31.5602 7.42941 31.5407 7.42941C31.4969 7.42941 31.0956 7.81737 31.0956 7.85975C31.0956 7.8766 31.0731 7.90984 31.0455 7.9336C31.0179 7.95734 30.9783 8.03384 30.9574 8.10361C30.9365 8.17338 30.9099 8.23044 30.8981 8.23044C30.8863 8.23044 30.8767 8.26648 30.8767 8.31054C30.8767 8.3546 30.8644 8.39064 30.8493 8.39064C30.8341 8.39064 30.822 8.46185 30.822 8.55085C30.822 8.63984 30.8098 8.71105 30.7946 8.71105C30.7782 8.71105 30.7672 8.81786 30.7672 8.97806C30.7672 9.13827 30.7782 9.24507 30.7946 9.24507C30.8096 9.24507 30.822 9.30515 30.822 9.37857C30.822 9.452 30.8343 9.51208 30.8493 9.51208C30.8644 9.51208 30.8767 9.54812 30.8767 9.59218C30.8767 9.63624 30.889 9.67228 30.9041 9.67228C30.9191 9.67228 30.9314 9.70833 30.9314 9.75239C30.9314 9.79644 30.9437 9.83249 30.9588 9.83249C30.9738 9.83249 30.9862 9.85387 30.9862 9.87999C30.9862 9.90613 31.0108 9.94482 31.0409 9.96599C31.071 9.98717 31.0956 10.02 31.0956 10.039C31.0956 10.0876 31.5512 10.5267 31.6015 10.5267C31.6243 10.5267 31.643 10.5387 31.643 10.5534C31.643 10.5681 31.6676 10.5801 31.6977 10.5801C31.7278 10.5801 31.7524 10.5921 31.7524 10.6068C31.7524 10.6215 31.7771 10.6335 31.8072 10.6335C31.8373 10.6335 31.8619 10.6455 31.8619 10.6602C31.8619 10.6749 31.8865 10.6869 31.9166 10.6869C31.9467 10.6869 31.9714 10.6989 31.9714 10.7136C31.9714 10.7283 32.0083 10.7403 32.0535 10.7403C32.0986 10.7403 32.1356 10.7523 32.1356 10.767C32.1356 10.7817 32.1725 10.7937 32.2177 10.7937C32.2628 10.7937 32.2998 10.8057 32.2998 10.8204C32.2998 10.8357 32.3819 10.8471 32.4913 10.8471C32.6008 10.8471 32.6829 10.8586 32.6829 10.8738C32.6829 10.8894 32.7741 10.9005 32.9019 10.9005C33.0296 10.9005 33.1208 10.8894 33.1208 10.8738C33.1208 10.8586 33.2029 10.8471 33.3124 10.8471C33.4218 10.8471 33.5039 10.8357 33.5039 10.8204C33.5039 10.8057 33.5409 10.7937 33.586 10.7937C33.6312 10.7937 33.6681 10.7817 33.6681 10.767C33.6681 10.7523 33.7051 10.7403 33.7502 10.7403C33.7954 10.7403 33.8323 10.7283 33.8323 10.7136C33.8323 10.6989 33.857 10.6869 33.8871 10.6869C33.9172 10.6869 33.9418 10.6749 33.9418 10.6602C33.9418 10.6455 33.9664 10.6335 33.9965 10.6335C34.0266 10.6335 34.0513 10.6215 34.0513 10.6068C34.0513 10.5921 34.0732 10.5801 34.1 10.5801C34.1268 10.5801 34.1664 10.5561 34.1881 10.5267C34.2098 10.4973 34.2436 10.4733 34.2631 10.4733C34.3093 10.4733 34.6533 10.1377 34.6533 10.0925C34.6533 10.0735 34.678 10.0406 34.7081 10.0194C34.7382 9.99822 34.7628 9.95953 34.7628 9.93339C34.7628 9.90728 34.7751 9.88589 34.7902 9.88589C34.8052 9.88589 34.8176 9.86186 34.8176 9.83249C34.8176 9.80312 34.8299 9.77909 34.8449 9.77909C34.86 9.77909 34.8723 9.75506 34.8723 9.72568C34.8723 9.69631 34.8846 9.67228 34.8997 9.67228C34.9147 9.67228 34.927 9.62422 34.927 9.56548C34.927 9.50674 34.9393 9.45868 34.9544 9.45868C34.9703 9.45868 34.9818 9.36968 34.9818 9.24507C34.9818 9.12046 34.9932 9.03146 35.0091 9.03146C35.0242 9.03146 35.0365 8.99542 35.0365 8.95136C35.0365 8.9073 35.0242 8.87126 35.0091 8.87126C34.9932 8.87126 34.9818 8.78226 34.9818 8.65765C34.9818 8.53304 34.9703 8.44404 34.9544 8.44404C34.9393 8.44404 34.927 8.408 34.927 8.36394C34.927 8.31988 34.9147 8.28384 34.8997 8.28384C34.8846 8.28384 34.8723 8.24779 34.8723 8.20374C34.8723 8.15968 34.86 8.12363 34.8449 8.12363C34.8299 8.12363 34.8176 8.0996 34.8176 8.07023C34.8176 8.04086 34.8052 8.01683 34.7902 8.01683C34.7751 8.01683 34.7628 7.99544 34.7628 7.96933C34.7628 7.94319 34.7382 7.9045 34.7081 7.88333C34.678 7.86215 34.6533 7.8292 34.6533 7.81011C34.6533 7.76768 34.3657 7.48281 34.3228 7.48281C34.306 7.48281 34.2577 7.44677 34.2155 7.40271C34.1733 7.35865 34.1191 7.32261 34.095 7.32261C34.0709 7.32261 34.0513 7.31059 34.0513 7.29591C34.0513 7.28122 34.0266 7.26921 33.9965 7.26921C33.9664 7.26921 33.9418 7.25719 33.9418 7.2425C33.9418 7.22782 33.9172 7.2158 33.8871 7.2158C33.857 7.2158 33.8323 7.20379 33.8323 7.1891C33.8323 7.17442 33.7954 7.1624 33.7502 7.1624C33.7051 7.1624 33.6681 7.15039 33.6681 7.1357C33.6681 7.12102 33.6189 7.109 33.5587 7.109C33.4985 7.109 33.4492 7.09698 33.4492 7.0823C33.4492 7.06745 33.3762 7.0556 33.285 7.0556Z" fill="#2C676E"/>
<path d="M15.1132 15.9737H14.6206V13.6774H15.168C15.5146 13.6774 15.7153 13.6872 15.7153 13.7041C15.7153 13.7188 15.7646 13.7308 15.8248 13.7308C15.885 13.7308 15.9343 13.7428 15.9343 13.7575C15.9343 13.7722 15.9712 13.7842 16.0164 13.7842C16.0615 13.7842 16.0985 13.7962 16.0985 13.8109C16.0985 13.8256 16.1231 13.8376 16.1532 13.8376C16.1833 13.8376 16.2079 13.8496 16.2079 13.8643C16.2079 13.879 16.2299 13.891 16.2566 13.891C16.2834 13.891 16.3231 13.915 16.3448 13.9444C16.3665 13.9738 16.4008 13.9978 16.4212 13.9978C16.4688 13.9978 16.5363 14.0637 16.5363 14.1102C16.5363 14.13 16.561 14.1636 16.5911 14.1847C16.6212 14.2059 16.6458 14.2446 16.6458 14.2707C16.6458 14.2968 16.6581 14.3182 16.6732 14.3182C16.6882 14.3182 16.7005 14.3543 16.7005 14.3983C16.7005 14.4424 16.7129 14.4784 16.7279 14.4784C16.7446 14.4784 16.7553 14.6031 16.7553 14.7988C16.7553 14.9946 16.7446 15.1193 16.7279 15.1193C16.7129 15.1193 16.7005 15.1553 16.7005 15.1994C16.7005 15.2434 16.6882 15.2795 16.6732 15.2795C16.6581 15.2795 16.6458 15.3035 16.6458 15.3329C16.6458 15.3622 16.6335 15.3863 16.6184 15.3863C16.6034 15.3863 16.5911 15.4047 16.5911 15.4272C16.5911 15.4772 16.4153 15.6533 16.3654 15.6533C16.3456 15.6533 16.3117 15.6773 16.29 15.7067C16.2683 15.736 16.2287 15.7601 16.2019 15.7601C16.1751 15.7601 16.1532 15.7721 16.1532 15.7868C16.1532 15.8015 16.1286 15.8135 16.0985 15.8135C16.0684 15.8135 16.0437 15.8255 16.0437 15.8402C16.0437 15.8549 15.9945 15.8669 15.9343 15.8669C15.8741 15.8669 15.8248 15.8789 15.8248 15.8936C15.8248 15.9083 15.7755 15.9203 15.7153 15.9203C15.6551 15.9203 15.6059 15.9323 15.6059 15.947C15.6059 15.9638 15.4234 15.9737 15.1132 15.9737Z" fill="#2C676E"/>
</svg>
