<svg xmlns="http://www.w3.org/2000/svg" viewBox="0 0 75 44" fill="none"><rect x="1" y="1" width="73.249" height="42" rx="2" fill="#fff" stroke="#b3b3b3" stroke-width=".3"/><path fill="#cfcfcf" d="M3.7 2.792H71.2v7.736H3.7z"/><path d="M20.582 7.32v1.574h-.92V4.427h1.742c.335 0 .63.06.883.184a1.35 1.35 0 0 1 .589.525 1.45 1.45 0 0 1 .206.77c0 .438-.15.783-.45 1.037s-.713.377-1.242.377h-.807zm0-.745h.822c.243 0 .428-.057.555-.172s.193-.278.193-.5a.73.73 0 0 0-.193-.53c-.13-.134-.307-.204-.534-.2h-.843v1.402zm6.802.185c0 .44-.078.825-.233 1.156s-.378.587-.67.767-.62.27-.994.27-.7-.1-1-.267a1.77 1.77 0 0 1-.675-.76 2.63 2.63 0 0 1-.242-1.141v-.22c0-.44.08-.826.236-1.16s.383-.592.672-.77.622-.27.994-.27a1.83 1.83 0 0 1 .991.27c.3.178.514.435.672.77a2.68 2.68 0 0 1 .24 1.156v.2zm-.932-.202c0-.468-.084-.824-.252-1.067a.82.82 0 0 0-.718-.365c-.31 0-.547.12-.715.362s-.253.6-.255 1.055v.218c0 .456.084.8.25 1.06s.4.377.724.377a.81.81 0 0 0 .712-.362c.166-.243.25-.597.252-1.06v-.218zm2.578 2.335h-.92V4.427h.92v4.466zm4.488 0h-.92l-1.8-2.94v2.94h-.92V4.427h.92L32.6 7.37V4.427h.917v4.466zm4.072-3.72h-1.368v3.72h-.92v-3.72h-1.35v-.745h3.637v.745zm1.448 2.148v1.574h-.92V4.427h1.742c.335 0 .63.06.883.184a1.35 1.35 0 0 1 .589.525 1.45 1.45 0 0 1 .206.77c0 .438-.15.783-.45 1.037s-.712.377-1.242.377h-.806zm0-.745h.822c.243 0 .428-.057.555-.172s.193-.278.193-.5a.73.73 0 0 0-.193-.53c-.13-.134-.307-.204-.534-.2h-.843v1.402zm5.11 1.398h-1.613l-.307.92h-.978l1.662-4.466h.853l1.67 4.466h-.978l-.3-.92zm-1.365-.745H43.9l-.56-1.672-.555 1.672zm4.15-.788l.93-2.012h1.006L47.4 7.273v1.62h-.935v-1.62L45 4.427h1l.923 2.012zm1.618 2.017a.45.45 0 0 1 .141-.344.51.51 0 0 1 .359-.132.51.51 0 0 1 .36.132c.095.088.144.202.144.344a.44.44 0 0 1-.14.34.51.51 0 0 1-.362.13.51.51 0 0 1-.359-.129c-.094-.088-.14-.2-.14-.34zm2.82.436h-.92V4.427h.92v4.466zm4.523-2.133c0 .44-.078.825-.233 1.156a1.75 1.75 0 0 1-.668.767c-.288.18-.62.27-.994.27s-.7-.1-1-.267-.515-.43-.675-.76-.24-.712-.242-1.14v-.22c0-.44.08-.826.236-1.16s.383-.592.672-.77.62-.27.994-.27.702.1 1 .27.514.435.672.77a2.68 2.68 0 0 1 .24 1.156v.2zm-.932-.202c0-.468-.084-.824-.252-1.067a.82.82 0 0 0-.718-.365c-.31 0-.547.12-.715.362s-.252.6-.255 1.055v.218c0 .456.084.8.252 1.06a.8.8 0 0 0 .724.377.81.81 0 0 0 .712-.362c.166-.243.25-.597.252-1.06v-.218z" fill="#222"/><g fill="#080607"><path d="M25.67 19.64l-1.792.153c.48 2.775 3.43 2.666 3.78 2.666s3.65 0 3.65-2.426c0-3.3-5.332-2.032-5.332-3.606 0-.066-.022-.787 1.595-.787 1.294 0 1.617.772 1.617 1.158l1.857-.066c-.13-2.382-3.256-2.338-3.387-2.338s-3.4-.1-3.4 2.185c0 2.82 5.2 1.967 5.2 3.453 0 .087.044 1.114-1.792 1.114-1.468 0-1.937-1.005-2-1.508zm7.846-3.737H31.8v-1.508h1.726v1.508zm0 .6H31.8v5.856h1.726v-5.856zm1.18-1.18v1.158h-.83v1.246h.83v2.994c0 1.704 1.246 1.814 1.726 1.814.385 0 1.05-.175 1.333-.262l-.175-1.158c-.08.03-.328.096-.677.13-.437.044-.48-.48-.48-.72v-2.797h1.158V16.47h-1.158v-2.054l-1.726.896z"/><path fill-rule="evenodd" d="M39.264 19.815h4.502c.095-1.15-.415-3.453-3.212-3.453-2.7 0-3.08 2.163-3.08 3.3s.752 2.732 3.322 2.732c1.814 0 2.535-.962 2.84-1.64l-1.726-.306c-.036.284-.3.852-1.114.852-1.005 0-1.53-.765-1.53-1.486zm0-.81h2.753c.015-.473-.236-1.42-1.355-1.42s-1.398.947-1.398 1.42z"/></g><g fill="#f4000a"><path d="M44.486 22.306v-7.91h1.923v6.556h4.676v1.355h-6.6z"/><path d="M54.58 22.503c1.93 0 3.496-1.37 3.496-3.06s-1.565-3.06-3.496-3.06-3.496 1.37-3.496 3.06 1.565 3.06 3.496 3.06zm.001-1.268c.94 0 1.704-.802 1.704-1.792s-.763-1.792-1.704-1.792-1.705.802-1.705 1.792.763 1.792 1.705 1.792zm10.1-.815c-.44 1.2-1.674 2.083-3.128 2.083-1.822 0-3.3-1.37-3.3-3.06s1.477-3.06 3.3-3.06c1.354 0 2.517.756 3.026 1.838l-1.737.293c-.264-.517-.743-.863-1.3-.863-.833 0-1.508.802-1.508 1.792s.675 1.792 1.508 1.792c.634 0 1.177-.466 1.4-1.125l1.73.3z" fill-rule="evenodd"/><path d="M65.005 14.417v7.91h1.748V20.47l.83-.743 1.66 2.6h1.923l-2.47-3.693 2.273-2.163h-2.163l-2.054 2.076v-4.13h-1.748z"/></g><g fill="#000"><path d="M25.38 29.758a2.3 2.3 0 0 0 .203.822c.116.25.268.46.46.643a2.1 2.1 0 0 0 .673.43 2.29 2.29 0 0 0 .858.15 3.46 3.46 0 0 0 .798-.09 2.11 2.11 0 0 0 .673-.292c.195-.135.35-.308.465-.518s.173-.473.173-.774c0-.246-.064-.455-.2-.625s-.288-.324-.494-.447-.435-.236-.697-.328l-.786-.256-.673-.208-.65-.256c-.206-.095-.4-.204-.584-.328a2.12 2.12 0 0 1-.47-.435 2.03 2.03 0 0 1-.316-.566 2.22 2.22 0 0 1-.113-.738c0-.345.067-.65.203-.9a1.87 1.87 0 0 1 .566-.667c.246-.18.538-.314.875-.405a4.31 4.31 0 0 1 1.12-.143 3.87 3.87 0 0 1 .959.107c.278.072.52.17.727.292a2.1 2.1 0 0 1 .524.435 2.44 2.44 0 0 1 .351.518 2.47 2.47 0 0 1 .202.566 3.67 3.67 0 0 1 .083.56h-.905c-.024-.278-.1-.522-.203-.733s-.248-.387-.423-.53a1.78 1.78 0 0 0-.596-.322 2.38 2.38 0 0 0-.721-.107c-.234 0-.465.024-.7.07a1.96 1.96 0 0 0-.602.232c-.175.103-.318.24-.43.4s-.16.38-.16.625c0 .254.062.47.185.65a1.59 1.59 0 0 0 .494.453 3.6 3.6 0 0 0 .703.328l.822.268.667.214a6.29 6.29 0 0 1 .649.256 3.58 3.58 0 0 1 .572.328c.175.124.334.26.465.423a1.74 1.74 0 0 1 .304.554c.076.207.113.445.113.715 0 .405-.075.762-.226 1.072a2.12 2.12 0 0 1-.619.768c-.266.206-.582.36-.947.465s-.764.16-1.197.16a3.29 3.29 0 0 1-1.138-.203c-.37-.13-.7-.318-1-.56s-.518-.544-.697-.893a2.71 2.71 0 0 1-.28-1.18h.9zm12.638-5.712v.804H33.36v2.8h4.383v.804H33.36v3.085h4.866v.804H32.48v-8.308h5.54zm2.682 4.008c0 .635.08 1.187.244 1.656s.383.852.65 1.16a2.62 2.62 0 0 0 .91.685 2.6 2.6 0 0 0 1.036.22c.36 0 .687-.066.977-.197a2.56 2.56 0 0 0 .762-.518 2.9 2.9 0 0 0 .536-.733 3.42 3.42 0 0 0 .304-.852h.9a4.62 4.62 0 0 1-.411 1.209 3.56 3.56 0 0 1-.727.977 3.36 3.36 0 0 1-1.024.66c-.394.162-.828.238-1.316.238-.568 0-1.082-.1-1.542-.304s-.848-.502-1.173-.887-.57-.864-.744-1.423-.262-1.193-.262-1.9c0-.548.083-1.074.25-1.578s.407-.957.72-1.346.705-.705 1.16-.935.985-.35 1.572-.35c.492 0 .933.066 1.322.197a3.18 3.18 0 0 1 1.013.548c.3.23.532.506.727.828s.345.667.453 1.048h-.935c-.218-.623-.538-1.086-.96-1.388s-.957-.46-1.62-.46c-.413 0-.792.1-1.138.274a2.82 2.82 0 0 0-.893.744 3.53 3.53 0 0 0-.584 1.096c-.14.417-.208.86-.208 1.328zm9.134-4.008v5.598a2.14 2.14 0 0 0 .185.91c.125.27.3.492.488.68s.43.33.68.43a2.1 2.1 0 0 0 .768.149 2.42 2.42 0 0 0 .8-.137 2.37 2.37 0 0 0 .732-.405c.214-.18.395-.4.53-.667s.208-.582.208-.935v-5.622h.882V29.6a2.96 2.96 0 0 1-.13.893 2.75 2.75 0 0 1-.351.739 3.21 3.21 0 0 1-.53.6 3.36 3.36 0 0 1-.655.423c-.234.115-.48.2-.733.256s-.5.1-.75.1a3.01 3.01 0 0 1-.721-.089c-.242-.056-.474-.14-.697-.25a3.03 3.03 0 0 1-.625-.423 2.78 2.78 0 0 1-.506-.59 2.97 2.97 0 0 1-.34-.75 3.16 3.16 0 0 1-.125-.911v-5.54h.882zM63.407 26.4a2.43 2.43 0 0 1-.077.608 2.35 2.35 0 0 1-.22.566 2.11 2.11 0 0 1-.363.482 2.32 2.32 0 0 1-.506.381c.214.056.4.14.524.256a1.17 1.17 0 0 1 .322.393 1.5 1.5 0 0 1 .161.482 2.97 2.97 0 0 1 .048.536v1.257a1.94 1.94 0 0 0 .072.524 2.52 2.52 0 0 0 .191.459h-.96a.88.88 0 0 1-.095-.214 2.69 2.69 0 0 1-.048-.256l-.024-.25-.006-.214v-1.322c0-.16-.028-.316-.083-.47a1.05 1.05 0 0 0-.262-.423c-.12-.123-.276-.222-.47-.298s-.43-.113-.7-.113h-2.513v3.56h-.88v-8.308H60.9c.405 0 .762.072 1.072.214s.576.322.786.548.375.475.482.756a2.29 2.29 0 0 1 .167.846zm-5.02 1.602H60.9a1.57 1.57 0 0 0 .62-.125 1.62 1.62 0 0 0 .512-.345 1.65 1.65 0 0 0 .357-.512 1.53 1.53 0 0 0 .13-.63 1.48 1.48 0 0 0-.125-.613 1.43 1.43 0 0 0-.34-.494 1.48 1.48 0 0 0-.512-.322 1.71 1.71 0 0 0-.643-.12h-2.513v3.162zm12.9-3.956v.804H66.63v2.8h4.383v.804H66.63v3.085h4.866v.804H65.75v-8.308h5.54z"/><path fill-rule="evenodd" d="M9.134 18.1c.436-1.04 1.463-1.77 2.66-1.77s2.225.73 2.66 1.77H9.134zm-2.106 0c.504-2.166 2.447-3.78 4.767-3.78s4.263 1.614 4.767 3.78h1.723v11.67H5.306V18.1h1.723zm.42 9.528v-7.386h8.697v7.386H7.447z"/></g><path d="M9.654 22.612l-1.377 1.683 3.453 2.7 5.157-6.403-1.64-1.093-3.693 4.633-1.9-1.53z" fill="#f4000a"/><g fill="#9db34e"><path d="M29.656 38.923v1.455h-.68v-3.915h1.498c.437 0 .784.114 1.04.34s.387.53.387.903c0 .384-.126.682-.38.895s-.603.32-1.057.32h-.8zm0-.546h.817c.242 0 .427-.056.554-.17s.2-.28.2-.495-.064-.38-.194-.505a.75.75 0 0 0-.532-.196h-.836v1.366zm4.484 2c-.03-.056-.054-.146-.075-.272-.208.217-.463.325-.764.325-.292 0-.53-.083-.715-.25a.8.8 0 0 1-.277-.618c0-.3.115-.548.344-.713s.56-.25 1-.25h.4v-.2c0-.15-.042-.27-.126-.36s-.212-.137-.385-.137a.57.57 0 0 0-.366.113c-.095.074-.142.168-.142.282h-.653a.72.72 0 0 1 .159-.446c.106-.14.25-.25.43-.328s.386-.118.6-.118c.34 0 .612.086.815.258s.307.4.312.72v1.312a1.7 1.7 0 0 0 .1.627v.046h-.667zm-.718-.47a.72.72 0 0 0 .363-.094c.113-.064.2-.147.258-.253v-.548h-.352c-.242 0-.424.042-.546.126a.41.41 0 0 0-.183.358c0 .125.04.226.124.3s.196.1.336.1zm3.59-.32c0-.117-.048-.205-.145-.266s-.254-.115-.476-.16-.408-.106-.557-.178c-.326-.158-.5-.386-.5-.686a.78.78 0 0 1 .317-.63c.21-.17.48-.253.807-.253.348 0 .628.086.842.258a.82.82 0 0 1 .323.67h-.653a.4.4 0 0 0-.14-.312c-.093-.084-.217-.126-.37-.126-.143 0-.26.033-.352.1a.31.31 0 0 0-.134.266c0 .1.042.178.126.234s.255.112.5.17.457.123.602.202.255.17.325.28a.71.71 0 0 1 .108.398.76.76 0 0 1-.325.637c-.217.16-.5.242-.852.242-.238 0-.45-.043-.637-.13a1.05 1.05 0 0 1-.436-.355.84.84 0 0 1-.156-.487h.635c.01.154.067.273.175.358a.67.67 0 0 0 .428.124c.172 0 .303-.032.393-.097s.134-.152.134-.258z"/><path d="M39.857 39.587c0-.117-.048-.205-.145-.266s-.254-.115-.476-.16-.408-.106-.557-.178c-.326-.158-.5-.386-.5-.686a.78.78 0 0 1 .317-.63c.21-.17.48-.253.807-.253.348 0 .628.086.842.258a.82.82 0 0 1 .323.67h-.653a.4.4 0 0 0-.14-.312c-.093-.084-.217-.126-.37-.126-.143 0-.26.033-.352.1a.31.31 0 0 0-.135.266c0 .1.042.178.126.234s.255.112.5.17.457.123.602.202.255.17.325.28a.71.71 0 0 1 .108.398.76.76 0 0 1-.325.637c-.217.16-.5.242-.852.242-.238 0-.45-.043-.637-.13a1.05 1.05 0 0 1-.436-.355.84.84 0 0 1-.156-.487h.635c.01.154.067.273.175.358a.67.67 0 0 0 .428.124c.172 0 .303-.032.393-.097s.134-.152.134-.258zm2.496.845c-.414 0-.75-.13-1.008-.4s-.384-.6-.384-1.043v-.08a1.75 1.75 0 0 1 .167-.777c.113-.23.27-.408.473-.535a1.25 1.25 0 0 1 .678-.191c.396 0 .702.126.917.38s.325.6.325 1.073v.264h-1.9c.02.24.1.43.24.57s.32.2.532.2c.3 0 .543-.12.73-.363l.352.336c-.117.174-.273.3-.468.406a1.45 1.45 0 0 1-.653.142zm-.078-2.492c-.18 0-.324.063-.436.188s-.18.3-.2.524h1.245v-.048c-.014-.22-.073-.384-.175-.495a.55.55 0 0 0-.425-.17z"/><path d="M43.907 38.902c0-.448.104-.808.312-1.078s.487-.41.836-.41c.308 0 .557.108.747.323v-1.5h.653v4.13h-.592l-.032-.3c-.195.237-.456.355-.782.355-.34 0-.617-.137-.828-.41s-.315-.647-.315-1.118zm.653.056c0 .296.056.527.17.694s.277.247.487.247c.267 0 .462-.12.586-.358V38.3c-.12-.233-.314-.35-.58-.35-.212 0-.375.084-.49.253s-.172.42-.172.755z"/></g></svg>
