<svg xmlns="http://www.w3.org/2000/svg" xmlns:xlink="http://www.w3.org/1999/xlink" viewBox="0 0 50 25" fill="none"><g fill="#fff"><path d="M.486 2a2 2 0 0 1 2-2h45.028a2 2 0 0 1 2 2v21a2 2 0 0 1-2 2H2.486a2 2 0 0 1-2-2V2z"/><path d="M2.486.15h45.028A1.85 1.85 0 0 1 49.364 2v21a1.85 1.85 0 0 1-1.85 1.85H2.486A1.85 1.85 0 0 1 .636 23V2A1.85 1.85 0 0 1 2.486.15z" stroke="#b3b3b3" stroke-width=".3"/></g><path d="M21.085 12.282c0 .488-.163.872-.5 1.153s-.775.42-1.354.42c-.533 0-1.005-.108-1.415-.325v-1.064a5.58 5.58 0 0 0 .855.344c.233.067.45.1.643.1.232 0 .4-.048.533-.144s.188-.24.188-.43a.49.49 0 0 0-.082-.281c-.055-.084-.136-.164-.243-.24s-.32-.198-.646-.366c-.305-.155-.534-.304-.687-.447s-.274-.3-.366-.5a1.52 1.52 0 0 1-.137-.665c0-.478.15-.854.448-1.127s.715-.4 1.244-.4a2.69 2.69 0 0 1 .742.1 4.83 4.83 0 0 1 .742.281l-.342.9c-.267-.118-.488-.2-.663-.248a1.96 1.96 0 0 0-.513-.07c-.2 0-.354.05-.46.152s-.16.233-.16.395a.53.53 0 0 0 .065.266c.043.074.112.147.205.218s.32.195.673.377c.467.24.787.484.96.728s.26.538.26.9zm3.882 1.5H22.1V8.38h2.878v.94H23.15v1.186h1.692v.94H23.15v1.393h1.818v.946zm3.17-4.527a1.05 1.05 0 0 0-.926.488c-.22.323-.328.774-.328 1.352 0 1.205.418 1.807 1.254 1.807.35 0 .776-.095 1.275-.284v.96a3.31 3.31 0 0 1-1.374.277c-.727 0-1.283-.238-1.668-.713s-.578-1.163-.578-2.055c0-.562.095-1.053.284-1.475s.46-.748.814-.972a2.27 2.27 0 0 1 1.248-.34c.485 0 .973.127 1.463.38l-.342.93c-.187-.096-.375-.18-.564-.25a1.57 1.57 0 0 0-.557-.107zm6.408-.875v3.496c0 .4-.083.75-.25 1.05a1.67 1.67 0 0 1-.714.69c-.312.16-.68.24-1.107.24-.643 0-1.142-.177-1.497-.532s-.533-.845-.533-1.463V8.38H31.5v3.307c0 .416.077.722.232.917s.4.292.77.292c.346 0 .597-.097.752-.292s.236-.505.236-.924v-3.3h1.056zm2.02 2.398h.342c.335 0 .582-.06.742-.18s.24-.3.24-.57-.082-.44-.246-.547-.413-.163-.755-.163h-.32v1.46zm0 .93v2.073h-1.06v-5.4h1.456c.68 0 1.18.134 1.507.403s.5.67.5 1.216c0 .318-.08.6-.243.85a1.61 1.61 0 0 1-.687.58l1.47 2.354h-1.176L37.13 11.7h-.564zm6.44 2.074h-2.878V8.38h2.878v.94h-1.818v1.186h1.692v.94h-1.692v1.393h1.818v.946z" fill="#222"/><g fill="#bdbac1"><path d="M19.17 16.913c0 .22-.07.395-.213.523s-.337.2-.6.2c-.232 0-.437-.05-.616-.147v-.482a2.38 2.38 0 0 0 .372.156c.102.03.195.045.28.045a.36.36 0 0 0 .232-.065c.054-.043.082-.108.082-.194a.23.23 0 0 0-.036-.127.41.41 0 0 0-.106-.109c-.046-.035-.14-.1-.28-.166-.133-.07-.232-.138-.3-.203a.75.75 0 0 1-.159-.226.71.71 0 0 1-.06-.302c0-.217.065-.387.195-.5s.3-.186.54-.186c.113 0 .22.015.323.045a2.15 2.15 0 0 1 .323.127l-.15.404a1.99 1.99 0 0 0-.288-.112.82.82 0 0 0-.223-.032c-.087 0-.154.023-.2.07a.24.24 0 0 0-.07.179c0 .046.01.086.028.12a.35.35 0 0 0 .089.099 2.95 2.95 0 0 0 .293.171c.203.1.343.22.418.33a.7.7 0 0 1 .113.404zm1.77 0c0 .22-.07.395-.213.523s-.337.2-.6.2c-.232 0-.437-.05-.616-.147v-.482c.147.074.27.126.372.156s.195.045.28.045c.1 0 .178-.022.232-.065s.082-.108.082-.194a.23.23 0 0 0-.036-.127.41.41 0 0 0-.105-.109c-.046-.035-.14-.1-.28-.166-.133-.07-.232-.138-.3-.203a.75.75 0 0 1-.159-.226.71.71 0 0 1-.06-.302c0-.217.065-.387.195-.5s.3-.186.54-.186c.113 0 .22.015.323.045a2.06 2.06 0 0 1 .323.127l-.15.404a2.05 2.05 0 0 0-.288-.112.82.82 0 0 0-.223-.032c-.087 0-.154.023-.2.07a.24.24 0 0 0-.07.179.25.25 0 0 0 .028.121c.02.034.05.066.1.1a2.97 2.97 0 0 0 .293.171c.203.1.343.22.418.33a.7.7 0 0 1 .113.404zm.46.68v-2.45h.46v2.02h.882v.43H21.4zm3.703 0H23.85v-2.45h1.252v.425h-.8v.538h.736v.425h-.736v.63h.8v.43zm2.383 0H26.9l-.946-1.852h-.013l.028.7v1.152h-.412v-2.45h.58l.944 1.834h.01l-.022-.675v-1.16h.415v2.45zm1.394-2.05c-.173 0-.308.074-.403.22s-.143.35-.143.613c0 .546.182.82.546.82.153 0 .337-.043.555-.13v.436a1.39 1.39 0 0 1-.598.126c-.316 0-.558-.108-.726-.323s-.25-.527-.25-.93a1.68 1.68 0 0 1 .123-.668c.082-.192.2-.34.354-.44s.335-.154.543-.154a1.33 1.33 0 0 1 .636.173l-.15.422a2.33 2.33 0 0 0-.245-.114c-.082-.032-.163-.05-.242-.05zm1.612.7h.15c.146 0 .253-.027.323-.082s.104-.14.104-.258-.036-.2-.107-.248-.18-.074-.33-.074h-.14v.662zm0 .422v.94h-.46v-2.45h.633c.295 0 .514.06.656.183s.213.304.213.55c0 .144-.035.273-.105.385a.72.72 0 0 1-.299.263l.64 1.067h-.5l-.52-.94h-.245zm2.273-.5l.453-1.008h.497l-.72 1.496v.953h-.458v-.936l-.72-1.512h.5l.45 1.008zm1.797.144h.152c.142 0 .248-.03.318-.094s.105-.156.105-.276-.03-.212-.1-.27-.15-.087-.276-.087h-.2v.727zm1.04-.4c0 .264-.073.465-.22.605s-.353.2-.623.2h-.198v.87h-.46v-2.45h.694c.264 0 .464.064.6.193s.207.318.207.57z"/><path d="M36.973 17.593h-.46v-2.017h-.6v-.432h1.64v.432h-.6v2.017zm.993 0v-2.45h.46v2.45h-.46zm2.98-1.227c0 .405-.1.717-.268.935s-.434.327-.767.327-.6-.1-.767-.327-.268-.53-.268-.938.1-.72.268-.933.436-.323.77-.323.6.108.766.325.266.528.266.935zm-1.586 0c0 .273.046.48.138.618s.23.208.413.208c.368 0 .552-.275.552-.826s-.183-.828-.55-.828c-.183 0-.322.07-.415.2s-.14.344-.14.618zm3.903 1.227h-.586l-.946-1.852h-.013l.028.7v1.152h-.412v-2.45h.58l.944 1.834h.01l-.022-.675v-1.16h.415v2.45z"/></g><path fill-rule="evenodd" d="M11.096 7.698c-1.415 0-2.562 1.147-2.562 2.562v1.887h-1.2V10.26c0-2.078 1.684-3.762 3.762-3.762s3.762 1.684 3.762 3.762v1.887h-1.2V10.26c0-1.415-1.147-2.562-2.562-2.562z" fill="#d7d6dc"/><use xlink:href="#C" fill="#68b100"/><mask id="A" mask-type="alpha" maskUnits="userSpaceOnUse" x="6" y="11" width="10" height="8"><use xlink:href="#C" fill="#68b100"/></mask><g mask="url(#A)"><path d="M2.414 11.206h8.644v7.297H2.414v-7.297z" fill="#78bf01"/></g><path fill-rule="evenodd" d="M13.776 13.285l-3.042 3.042-1.982-1.982.707-.707 1.275 1.275 2.335-2.335.707.707z" fill="#fff"/><defs ><path id="C" d="M6.736 11.706a.5.5 0 0 1 .5-.5h7.644a.5.5 0 0 1 .5.5v2.475c0 2.387-1.935 4.322-4.322 4.322h0c-2.387 0-4.322-1.935-4.322-4.322v-2.475z"/></defs></svg>
