<svg width="130" height="50" viewBox="0 0 130 50" fill="none" xmlns="http://www.w3.org/2000/svg">
<path d="M28.47 18.9982H12.5833V1.01099H1.32031V48.1156H12.5833V30.1284H28.47V48.1156H39.7329V1.01099H28.47V18.9982Z" fill="#02EAD0"/>
<path d="M63.5177 7.83691C52.2615 7.83691 43.1367 16.8541 43.1367 27.9741C43.1367 39.0942 52.2649 48.1147 63.5177 48.1147C74.7739 48.1147 83.8952 39.0976 83.8952 27.9741C83.8952 16.8507 74.7739 7.83691 63.5177 7.83691ZM63.5177 36.8601C58.5501 36.8601 54.5257 32.8831 54.5257 27.9741C54.5257 23.0652 58.5535 19.0882 63.5177 19.0882C68.4853 19.0882 72.5097 23.0652 72.5097 27.9741C72.5097 32.8831 68.4853 36.8601 63.5177 36.8601Z" fill="#02EAD0"/>
<path d="M107.682 7.83691C96.4256 7.83691 87.3008 16.8541 87.3008 27.9741C87.3008 39.0942 96.429 48.1147 107.682 48.1147C118.938 48.1147 128.059 39.0976 128.059 27.9741C128.059 16.8507 118.938 7.83691 107.682 7.83691ZM107.682 36.8601C102.714 36.8601 98.6897 32.8831 98.6897 27.9741C98.6897 23.0652 102.714 19.0882 107.682 19.0882C112.646 19.0882 116.674 23.0652 116.674 27.9741C116.674 32.8831 112.649 36.8601 107.682 36.8601Z" fill="#02EAD0"/>
</svg>
