<svg width="178" height="38" viewBox="0 0 178 38" fill="none" xmlns="http://www.w3.org/2000/svg">
<path d="M15.1006 17.6426C15.8797 19.0202 14.1375 19.4472 13.3199 19.5258C12.0811 19.6467 11.8246 18.9295 12.0665 18.0285C12.1459 17.7058 12.3223 17.4156 12.5714 17.1971C12.8206 16.9785 13.1307 16.8422 13.4597 16.8068C13.7837 16.777 14.1097 16.8396 14.3999 16.9874C14.6902 17.1352 14.933 17.3624 15.1006 17.6426Z" fill="#EB1A6B"/>
<path d="M19.9621 15.0928C19.0566 22.0498 31.263 20.602 31.0306 26.1391C32.2347 24.5668 32.7524 20.2948 29.2077 18.0959C26.0495 16.1353 21.9343 17.2082 19.9621 15.0928Z" fill="#EB1A6B"/>
<path d="M26.9911 12.4707C26.9115 12.3968 26.8296 12.3241 26.75 12.2515C26.8308 12.3253 26.9115 12.4029 26.9911 12.4707Z" fill="#EB1A6B"/>
<path d="M29.8312 17.5415L29.824 17.5306C29.7138 17.325 29.5882 17.1281 29.4483 16.9415C29.0367 16.3815 28.4464 15.9801 27.7759 15.8046C27.3296 15.6889 26.8731 15.6168 26.4129 15.5893C25.947 15.5554 25.4714 15.536 24.9909 15.5107C24.0278 15.4574 23.0417 15.3583 22.0785 15.0825C21.8377 15.0136 21.5968 14.9386 21.3645 14.8479C21.244 14.8043 21.132 14.7572 21.0129 14.7064C20.8937 14.6555 20.772 14.5974 20.6517 14.5358C20.1987 14.2866 19.7793 13.9806 19.4031 13.6251C18.6614 12.9321 18.0787 12.1458 17.4947 11.3838C16.9442 10.6189 16.3535 9.88409 15.7249 9.18253C15.1047 8.49523 14.3716 7.92002 13.5576 7.48195C12.7148 7.0555 11.7994 6.79287 10.8594 6.70788C11.8344 6.60151 12.8208 6.72236 13.7418 7.06105C14.6712 7.42349 15.5208 7.9655 16.2426 8.65639C16.7138 9.10033 17.1562 9.57423 17.567 10.0751C20.6252 9.47038 23.1055 10.0074 25.0115 11.05L25.0548 11.0718C25.6615 11.4023 26.2299 11.799 26.7501 12.2547C26.8332 12.3272 26.915 12.3998 26.9909 12.4736C27.3969 12.8483 27.7747 13.2525 28.1215 13.6831L28.1479 13.7182C29.2736 15.1502 29.8299 16.6391 29.8312 17.5415Z" fill="#EB1A6B"/>
<path d="M29.8282 17.5426L29.8203 17.5269L29.8282 17.5426Z" fill="#EB1A6B"/>
<path d="M11.0139 7.60278C11.7941 7.71648 12.5899 8.02854 13.1028 8.62362C13.6158 9.21869 13.8047 9.99278 13.9529 10.7294C14.0733 11.3003 14.1684 11.882 14.3923 12.4227C14.5007 12.6864 14.6596 12.9174 14.7921 13.1666C14.9017 13.3734 15.1015 13.5596 15.1786 13.781C15.1923 13.8127 15.1974 13.8477 15.1935 13.8821C15.1895 13.9165 15.1764 13.9492 15.1557 13.9769C14.8836 14.2793 14.1492 13.9431 13.8722 13.8076C13.3935 13.5692 12.9647 13.2407 12.6091 12.84C11.498 11.6002 10.9236 9.81619 10.9585 8.19181C10.9662 7.99461 10.9847 7.79796 11.0139 7.60278Z" fill="#EB1A6B"/>
<path d="M24.062 21.5847C22.3765 26.3103 30.0219 29.4805 27.1576 34.2846C30.0965 33.0654 31.4921 29.3825 30.2724 26.4603C29.2056 23.895 26.051 22.96 24.062 21.5847Z" fill="#EB1A6B"/>
<path d="M13.9492 27.7618C14.4086 27.414 14.9108 27.1275 15.4434 26.9091C15.9823 26.6925 16.5414 26.5304 17.1123 26.4253C18.2452 26.2088 19.3661 26.1556 20.3077 25.7747C20.7728 25.5922 21.2009 25.3257 21.5707 24.9884C21.9286 24.6544 22.2025 24.2399 22.3701 23.779C22.5419 23.2926 22.6115 22.7758 22.5749 22.261C22.5324 21.7081 22.4078 21.1646 22.2052 20.6487C22.625 21.0871 22.9305 21.6228 23.0949 22.2084C23.2594 22.7938 23.2775 23.4109 23.1479 24.0051C23.0006 24.6341 22.6826 25.2098 22.2293 25.6682C21.7805 26.1123 21.2394 26.451 20.6448 26.66C20.0774 26.8599 19.4857 26.9819 18.8858 27.0228C18.3078 27.0712 17.7491 27.0846 17.2001 27.1172C16.0901 27.1639 14.9938 27.3814 13.9492 27.7618Z" fill="#EB1A6B"/>
<path d="M24.7324 36.0703C24.5627 36.2058 24.3929 36.3497 24.2063 36.4755C24.0185 36.5998 23.8217 36.7097 23.6175 36.8045C23.1925 37.0128 22.7251 37.1192 22.2522 37.1153C20.9711 37.0912 20.0657 36.1332 19.5359 35.0506C19.1747 34.3129 18.9254 33.5157 18.4969 32.8131C17.884 31.808 16.8353 30.9988 15.6071 31.1487C15.1064 31.2117 14.6367 31.4378 14.3586 31.8745C13.6266 33.0151 14.6777 34.6128 16.0177 34.3866C16.1318 34.3692 16.2432 34.3383 16.3501 34.2947C16.4564 34.2492 16.5559 34.1885 16.645 34.1145C16.8322 33.9579 16.9734 33.753 17.0531 33.5219C17.1412 33.2808 17.1608 33.0199 17.1098 32.7683C17.0548 32.5054 16.9003 32.2742 16.6788 32.1237C16.9363 32.2448 17.137 32.4616 17.2386 32.7284C17.344 33.0029 17.3711 33.3016 17.3169 33.5907C17.2643 33.892 17.132 34.1737 16.934 34.406C16.8288 34.5255 16.7071 34.6294 16.5728 34.7144C16.4396 34.7985 16.2969 34.8663 16.1478 34.9164C15.8454 35.0202 15.5234 35.0537 15.2063 35.0144C14.7609 34.9507 14.3409 34.7677 13.9902 34.4846C13.576 34.1556 13.2677 33.7251 12.8933 33.3549C12.4641 32.9025 11.9576 32.5309 11.3979 32.2579C11.0119 32.0876 10.608 31.9618 10.194 31.883C9.98563 31.8394 9.77488 31.808 9.56425 31.7814C9.46788 31.7716 8.99591 31.6664 8.92969 31.7281C9.58094 31.1259 10.2909 30.5911 11.0488 30.1315C11.827 29.6676 12.6624 29.3085 13.5338 29.0636C14.4374 28.8082 15.3822 28.7354 16.3139 28.8495C16.7935 28.9073 17.2633 29.0295 17.7106 29.2123C18.1794 29.4004 18.6121 29.6689 18.9893 30.0058C19.3626 30.3591 19.6644 30.7818 19.8779 31.2504C20.0705 31.689 20.2142 32.1478 20.3065 32.6184C20.5809 34.025 20.4798 36.2058 22.3136 36.5275C22.4092 36.5461 22.5056 36.5598 22.6026 36.5686L22.9023 36.5759C23.1085 36.5611 23.3132 36.5316 23.5152 36.4875C23.9335 36.3888 24.3412 36.2489 24.7324 36.0703Z" fill="#EB1A6B"/>
<path d="M14.0803 34.5367L14.0312 34.4983L14.0803 34.5367Z" fill="#EB1A6B"/>
<path d="M12.4326 14.6845C12.3659 14.9422 12.2492 15.1843 12.0895 15.3969C11.792 15.7846 11.3985 16.0869 10.9481 16.2738C10.5429 16.4491 10.1139 16.5624 9.67546 16.61C9.58029 16.6221 9.48157 16.6293 9.38645 16.6366C9.10869 16.6472 8.84159 16.7468 8.62428 16.921C8.40697 17.0951 8.25086 17.3345 8.17881 17.6042C8.14582 17.7384 8.12129 17.8746 8.10536 18.0119C8.06203 18.3674 8.0548 18.7375 8.01627 19.185C7.92193 19.9466 7.70263 20.6871 7.3673 21.3767C6.93145 22.2983 6.44262 23.0409 6.5558 24.1029C6.63044 24.7923 6.98201 25.2543 7.44917 25.7309C8.29198 26.5969 10.1787 26.9839 9.75727 29.1176C9.50323 30.3911 7.40101 31.7277 4.44636 32.1945C4.74013 32.1497 4.0695 31.014 4.02735 30.9414C3.7107 30.4431 3.36394 29.9738 3.1123 29.4332C2.61865 28.3846 2.38988 27.1714 2.59216 26.0223C2.80527 24.8129 3.69625 23.8864 4.43672 22.9623C5.31807 21.8629 6.24274 20.4224 6.44742 18.9952C6.49559 18.6493 6.5293 18.2162 6.60636 17.7856C6.67982 17.3086 6.82859 16.8464 7.04702 16.4165C7.19613 16.1345 7.39244 15.8804 7.62737 15.6654C7.74985 15.5512 7.83066 15.399 7.85686 15.2332C7.88304 15.0674 7.85312 14.8976 7.77185 14.751L3.06173 6.24087L9.82714 14.6276C9.9042 14.7248 10.0015 14.8038 10.1124 14.8589C10.2232 14.914 10.3447 14.944 10.4684 14.9466C10.5921 14.9493 10.7147 14.9246 10.8278 14.8743C10.9409 14.8239 11.0416 14.7492 11.1226 14.6554C11.2083 14.555 11.257 14.428 11.2602 14.2958C11.2635 14.1637 11.2213 14.0343 11.1407 13.9298C10.6988 13.3625 10.2317 12.7843 9.77898 12.2159L8.07647 10.0992L4.65947 5.87318L0 0L5.09773 5.49461L8.73506 9.53436L10.5496 11.5591C11.1515 12.24 11.7535 12.8992 12.3556 13.6153L12.4542 13.7362L12.4759 13.9236C12.5053 14.1779 12.4907 14.4353 12.4326 14.6845Z" fill="#EB1A6B"/>
<path d="M13.9935 34.4802C13.6665 34.2265 13.3757 33.9289 13.1289 33.5959C13.3936 33.913 13.6827 34.2087 13.9935 34.4802Z" fill="#EB1A6B"/>
<path fill-rule="evenodd" clip-rule="evenodd" d="M102.13 11.8016C98.8426 12.6299 97.3019 15.2074 98.2361 18.315C98.6364 19.6465 99.8678 20.9898 101.609 21.9944C104.747 23.8048 105.671 24.538 106.208 25.6426C106.655 26.5641 106.694 26.8722 106.468 27.7075C105.939 29.6682 104.555 30.7496 102.576 30.7496C100.556 30.7496 99.1369 29.6163 98.8202 27.7495C98.6932 26.9989 98.5364 26.7592 98.1738 26.7592C97.7406 26.7592 97.6952 26.9578 97.6952 28.8592V30.9588L99.0093 31.4052C101.061 32.1021 103.98 32.0188 105.721 31.2137C109.114 29.6452 110.414 26.5319 108.891 23.6229C108.322 22.5348 106.893 21.3203 104.444 19.8433C101.871 18.2908 100.724 17.1615 100.556 16.0138C100.297 14.25 101.884 12.7903 104.052 12.7965C105.75 12.8013 106.479 13.2033 107.081 14.4673C107.458 15.2586 107.728 15.5202 108.174 15.5272C108.667 15.5347 108.741 15.4426 108.615 14.975C108.532 14.6665 108.463 13.8929 108.461 13.2559C108.459 12.4471 108.342 12.0535 108.073 11.951C107.342 11.6712 103.073 11.564 102.13 11.8016ZM36.125 12.5434C36.125 12.9023 36.2919 13.0422 36.7202 13.0422C37.9286 13.0422 37.9934 13.3909 38.1273 20.624C38.2442 26.943 38.2875 27.4476 38.7925 28.3803C39.5161 29.7163 40.4975 30.6054 42.0067 31.2925C43.0406 31.7632 43.6934 31.8629 45.761 31.8672C48.0041 31.8714 48.4128 31.799 49.698 31.1701C50.4867 30.7843 51.4691 30.061 51.8809 29.5628C53.3094 27.8364 53.4606 27.0018 53.6224 19.9536C53.7784 13.1664 53.7996 13.0561 54.959 13.0459C55.2288 13.0437 55.397 12.8506 55.397 12.5434C55.397 12.0723 55.2301 12.0446 52.3935 12.0446C49.5899 12.0446 49.3901 12.0767 49.3901 12.5276C49.3901 12.8893 49.5929 13.0302 50.1978 13.0888C51.527 13.2172 51.635 13.7281 51.639 19.9177C51.6432 26.1929 51.4289 27.4001 50.0852 28.6708C48.8358 29.8527 47.8414 30.2509 46.1389 30.2509C43.6936 30.2509 41.9607 29.1126 41.3925 27.1333C41.2013 26.4677 41.131 24.0198 41.181 19.776L41.2559 13.4163L42.1319 13.1347C42.6137 12.9798 43.0442 12.6713 43.0887 12.4488C43.1603 12.0914 42.7616 12.0446 39.6473 12.0446C36.2919 12.0446 36.125 12.0683 36.125 12.5434ZM59.4016 12.5434C59.4016 12.9294 59.5685 13.0422 60.1406 13.0422C61.4152 13.0422 62.133 13.532 62.421 14.5982C62.585 15.2045 62.6555 18.1 62.6075 22.2383C62.5216 29.6273 62.4203 30.1107 60.8921 30.4152C60.3881 30.5156 60.1524 30.7117 60.1524 31.0302C60.1524 31.4652 60.3972 31.4977 63.6564 31.4977C66.8583 31.4977 67.1604 31.4594 67.1604 31.0506C67.1604 30.7324 66.8398 30.5182 66.0472 30.3069C65.0628 30.0445 64.9035 29.9013 64.6719 29.0706C64.3748 28.0044 64.3044 16.7717 64.595 16.8041C64.698 16.8156 65.669 17.8538 66.7524 19.1111C67.8357 20.3683 70.7996 23.6696 73.3388 26.4473C77.313 30.795 78.0563 31.4977 78.6808 31.4977H79.4062L79.478 22.6563C79.5288 16.3787 79.6337 13.7313 79.8392 13.5265C79.9986 13.3679 80.5054 13.1614 80.9655 13.0676C81.4538 12.9681 81.8022 12.7454 81.8022 12.5331C81.8022 12.2354 81.1782 12.1568 78.3607 12.0999C75.0472 12.0331 74.9193 12.0493 74.9193 12.5364C74.9193 12.9065 75.0832 13.0422 75.531 13.0422C75.8676 13.0422 76.4588 13.3128 76.845 13.6437L77.5472 14.2453L77.6261 20.2528C77.6709 23.6447 77.6083 26.2605 77.4829 26.2605C77.3608 26.2605 76.5966 25.503 75.7848 24.5769C74.973 23.6509 72.6615 21.0978 70.6478 18.9031C68.6344 16.7084 66.4346 14.2764 65.7598 13.4991L64.5324 12.0855L61.9669 12.065C59.5615 12.0458 59.4016 12.0757 59.4016 12.5434ZM85.6816 12.5434C85.6816 12.9237 85.8485 13.0422 86.3846 13.0422C86.7713 13.0422 87.3062 13.2013 87.5735 13.3958C88.0319 13.7298 88.0637 14.1603 88.1376 21.0649C88.23 29.6867 88.1542 30.1699 86.6732 30.4059C85.9274 30.5249 85.6816 30.6798 85.6816 31.0309C85.6816 31.4663 85.9339 31.4977 89.4358 31.4977C93.0232 31.4977 93.1901 31.4756 93.1901 30.999C93.1901 30.6441 93.0232 30.5001 92.6122 30.5001C92.2944 30.5001 91.8158 30.341 91.5484 30.1465C91.0882 29.8114 91.059 29.3802 90.9901 21.9263C90.9195 14.2907 90.9323 14.045 91.4281 13.551C91.709 13.2711 92.2203 13.0422 92.5644 13.0422C93.0232 13.0422 93.1901 12.9092 93.1901 12.5434C93.1901 12.0668 93.0232 12.0446 89.4358 12.0446C85.8485 12.0446 85.6816 12.0668 85.6816 12.5434ZM111.889 12.5434C111.97 12.8524 112.23 13.0422 112.573 13.0422C112.877 13.0422 113.372 13.3033 113.673 13.6228C113.979 13.947 115.69 18.0469 117.551 22.9129L120.881 31.6224L121.755 31.6971L122.628 31.7717L124.967 25.5868C126.254 22.1852 127.442 19.1328 127.607 18.8036C127.89 18.2399 127.954 18.3257 128.706 20.3C129.144 21.4522 130.313 24.4991 131.302 27.0709L133.099 31.7471H133.892C134.328 31.7471 134.741 31.5981 134.812 31.4158C134.882 31.2337 136.032 28.2875 137.367 24.869C138.703 21.4507 140.182 17.6636 140.654 16.4535C141.731 13.6978 141.946 13.3577 142.804 13.0596C143.186 12.9272 143.498 12.6446 143.498 12.4317C143.498 12.1035 143.042 12.0446 140.494 12.0446C137.658 12.0446 137.491 12.0723 137.491 12.5434C137.491 12.9047 137.658 13.0422 138.096 13.0422C139.069 13.0422 139.493 13.3055 139.493 13.9098C139.493 14.4141 134.726 27.353 134.432 27.6455C134.252 27.8254 129.947 15.8061 129.791 14.6877C129.64 13.6013 130.104 13.0422 131.156 13.0422C131.567 13.0422 131.734 12.8983 131.734 12.5434C131.734 12.066 131.567 12.0446 127.855 12.0446C124.142 12.0446 123.975 12.066 123.975 12.5434C123.975 12.8277 124.142 13.0422 124.363 13.0422C125.145 13.0422 126.18 13.7944 126.447 14.5555C126.829 15.6477 126.536 16.755 124.286 22.7431L122.374 27.8302L121.963 26.8582C121.736 26.3236 120.558 23.1698 119.344 19.8498C116.959 13.3275 116.924 13.0422 118.5 13.0422C119.053 13.0422 119.22 12.9267 119.22 12.5434C119.22 12.0668 119.053 12.0446 115.489 12.0446C111.881 12.0446 111.763 12.061 111.889 12.5434ZM162.576 12.7155C162.576 12.7155 162.576 13.056 162.617 13.1508C162.659 13.2455 162.929 13.2811 162.929 13.2811C163.096 13.3259 163.255 13.3653 163.405 13.4024C164.161 13.5898 164.692 13.7213 164.905 14.2179C165.048 14.5534 165.057 15.7199 165.059 21.9732C165.061 28.567 165.06 29.3751 164.883 29.8108C164.664 30.3512 164.245 30.638 163.279 30.9094C163.279 30.9094 162.852 31.0283 162.737 31.1347C162.622 31.2409 162.6 31.4785 162.6 31.4785C162.6 31.4785 162.591 31.699 162.69 31.8048C162.788 31.9106 163.051 31.8601 163.051 31.8601L165.556 31.8668L169.71 31.9003C169.71 31.9003 169.88 31.9229 169.968 31.8104C170.056 31.6981 170.033 31.4779 170.033 31.4779C170.033 31.4779 170.033 31.2424 169.924 31.1363C169.814 31.0302 169.39 30.9306 169.39 30.9306C168.452 30.6997 167.97 30.3988 167.758 29.9103C167.599 29.5472 167.582 28.5669 167.559 26.5252V23.5319C167.663 23.5911 167.759 23.6581 167.861 23.729C168.339 24.0641 168.939 24.4836 171.179 24.5485C173.893 24.627 175.525 23.4195 176.496 22.017C177.467 20.6145 177.844 18.4112 177.131 16.064C176.419 13.7168 174.329 12.2964 171.391 12.1495C169.859 12.073 167.631 12.1486 166.385 12.2051L166.036 12.2207C164.905 12.2701 163.549 12.3783 162.873 12.4425L162.871 12.4427C162.687 12.4602 162.669 12.4619 162.618 12.5272C162.566 12.5928 162.576 12.7155 162.576 12.7155ZM173.604 21.9101C174.695 20.8839 174.713 19.2787 174.713 18.2533C174.606 16.6453 173.958 13.5531 170.288 13.5531C169.43 13.509 167.675 13.6571 167.626 14.8473C167.573 15.0576 167.549 16.5284 167.563 18.7856L167.585 22.3882L167.958 22.585L167.978 22.5956C168.181 22.7026 168.444 22.8415 168.904 22.9316C170.363 23.2173 172.512 22.9363 173.604 21.9101ZM150.641 12.3592C150.913 12.2562 151.092 12.1874 151.092 12.1874C151.092 12.1874 151.498 12.0204 151.63 12.1874C151.67 12.2388 151.817 12.619 152.182 13.5613C152.254 13.7461 152.334 13.9526 152.423 14.1825C152.967 15.5843 153.749 17.5963 154.161 18.6538C154.572 19.7112 155.385 21.8037 155.968 23.3039C156.551 24.804 157.3 26.7284 157.631 27.5803C157.963 28.4323 158.387 29.3182 158.505 29.4798C158.563 29.5591 158.623 29.6578 158.688 29.7659C158.944 30.1902 159.288 30.7595 159.978 30.871C159.978 30.871 160.518 30.9603 160.598 31.045C160.678 31.1296 160.696 31.2835 160.696 31.2835V31.5726C160.696 31.5726 160.687 31.6464 160.643 31.7093C160.598 31.772 160.435 31.7545 160.435 31.7545L156.27 31.7548L153.306 31.7762C153.306 31.7762 153.203 31.7887 153.142 31.7383C153.081 31.6879 153.049 31.5603 153.049 31.5603V31.3425C153.049 31.3425 153.024 31.1789 153.142 31.0364C153.26 30.8941 153.736 30.8776 153.736 30.8776C154.633 30.7997 154.989 30.0355 155.172 29.6422C155.186 29.6129 155.199 29.5855 155.211 29.5607C155.406 29.154 155.336 28.8891 154.453 26.7153C153.871 25.2806 153.672 24.8777 153.531 24.8418C153.431 24.8167 151.881 24.8074 150.086 24.8212L146.821 24.846L146.626 25.3826C146.062 26.9345 145.56 28.4763 145.485 28.8932C145.331 29.7413 145.546 30.6845 146.793 30.8486C146.793 30.8486 147.255 30.9123 147.379 31.0054C147.502 31.0984 147.545 31.3369 147.545 31.3369V31.5567C147.545 31.5567 147.522 31.6613 147.437 31.7317C147.352 31.8022 147.132 31.7765 147.132 31.7765H144.016L141.002 31.8107C141.002 31.8107 140.873 31.8078 140.778 31.7574C140.683 31.707 140.668 31.6057 140.668 31.6057V31.3968C140.668 31.3968 140.651 31.2613 140.819 31.0955C140.987 30.9296 141.44 30.8853 141.44 30.8853C142.264 30.7526 142.731 29.8756 142.999 29.3709C143.019 29.3337 143.038 29.2984 143.056 29.2657C143.162 29.0692 143.642 27.9224 144.123 26.7173C144.603 25.5124 145.142 24.1643 145.321 23.7216C145.928 22.2165 146.505 20.7745 147.378 18.5797C147.858 17.3747 148.567 15.596 148.956 14.6271L149.661 12.8653L150.641 12.3592ZM150.384 16.6415C150.535 17.0225 150.767 17.5959 150.898 17.9156C151.03 18.2353 151.398 19.1407 151.717 19.9277C152.035 20.7146 152.427 21.6723 152.586 22.0558C152.746 22.4394 152.877 22.7714 152.877 22.7936C152.877 22.8158 151.677 22.834 150.211 22.834C148.528 22.834 147.545 22.8017 147.545 22.7463C147.545 22.6981 147.602 22.507 147.671 22.3216C147.78 22.0267 148.327 20.4611 149.535 16.9843C149.722 16.4475 149.895 15.974 149.92 15.9322C150.005 15.789 150.109 15.9485 150.384 16.6415Z" fill="white"/>
</svg>
